<?xml version="1.0" encoding="utf-8"?>
<!-- Generator: Adobe Illustrator 25.2.3, SVG Export Plug-In . SVG Version: 6.00 Build 0)  -->
<svg version="1.1" id="Layer_1" xmlns="http://www.w3.org/2000/svg" xmlns:xlink="http://www.w3.org/1999/xlink" x="0px" y="0px"
	 viewBox="0 0 222 80" style="enable-background:new 0 0 222 80;" xml:space="preserve">
<style type="text/css">
	.st0{fill:#FFFFFF;}
	.st1{fill:#FFE9B3;}
	.st2{fill:#77838D;}
</style>
<g>
	<path class="st0" d="M14.33,43.42h194.26c4.31,0,7.8,3.49,7.8,7.8v16.22c0,4.31-3.49,7.8-7.8,7.8H14.33c-4.31,0-7.8-3.49-7.8-7.8
		V51.23C6.53,46.92,10.02,43.42,14.33,43.42z"/>
	<path class="st1" d="M20.71,55.99h183c4.15,0,7.51,3.36,7.51,7.51v0c0,4.15-3.36,7.51-7.51,7.51h-183c-4.15,0-7.51-3.36-7.51-7.51
		v0C13.2,59.35,16.56,55.99,20.71,55.99z"/>
	<path class="st2" d="M208.88,77.18H14.04c-5.2,0-9.44-4.23-9.44-9.44v-16.8c0-5.2,4.23-9.44,9.44-9.44h194.84
		c5.2,0,9.44,4.23,9.44,9.44v16.8C218.32,72.94,214.08,77.18,208.88,77.18z M14.04,45.35c-3.08,0-5.59,2.51-5.59,5.59v16.8
		c0,3.08,2.51,5.59,5.59,5.59h194.84c3.08,0,5.59-2.51,5.59-5.59v-16.8c0-3.08-2.51-5.59-5.59-5.59H14.04z"/>
	<g>
		
			<rect x="6.53" y="5.22" transform="matrix(-1 -1.620483e-10 1.620483e-10 -1 222.9207 20.67)" class="st0" width="209.86" height="10.22"/>
		<path class="st2" d="M218.32,17.37H4.6V3.3h213.71V17.37z M8.45,13.52h206.01V7.15H8.45V13.52z"/>
	</g>
	<g>
		<g>
			<path class="st0" d="M171.07,52.1v8.87c0,2.23,2.66,4.03,5.95,4.03s5.95-1.8,5.95-4.03V52.1H171.07z"/>
			<path class="st2" d="M177.02,65.96c-3.87,0-6.91-2.19-6.91-4.99v-9.83h13.82v9.83C183.93,63.77,180.89,65.96,177.02,65.96z
				 M172.03,53.06v7.91c0,1.66,2.28,3.07,4.98,3.07c2.7,0,4.98-1.4,4.98-3.07v-7.91H172.03z"/>
		</g>
		<g>
			<ellipse class="st0" cx="177.12" cy="51.79" rx="6.05" ry="4.03"/>
			<path class="st2" d="M177.12,56.79c-3.93,0-7.01-2.19-7.01-4.99s3.08-4.99,7.01-4.99c3.93,0,7.01,2.19,7.01,4.99
				S181.05,56.79,177.12,56.79z M177.12,48.73c-2.76,0-5.08,1.4-5.08,3.07s2.33,3.07,5.08,3.07c2.76,0,5.08-1.4,5.08-3.07
				S179.87,48.73,177.12,48.73z"/>
		</g>
		<g>
			<polyline class="st0" points="170.5,52.79 167.33,52.79 167.33,60.97 170.78,60.97 			"/>
			<path class="st2" d="M170.78,61.93h-3.44c-0.53,0-0.96-0.43-0.96-0.96v-8.18c0-0.53,0.43-0.96,0.96-0.96h3.17
				c0.53,0,0.96,0.43,0.96,0.96s-0.43,0.96-0.96,0.96h-2.2v6.25h2.48c0.53,0,0.96,0.43,0.96,0.96S171.31,61.93,170.78,61.93z"/>
		</g>
	</g>
	<g>
		<g>
			<polygon class="st0" points="194.37,55.89 187.84,49.19 200.66,49.19 			"/>
			<path class="st2" d="M194.37,56.86c-0.26,0-0.51-0.11-0.69-0.29l-6.53-6.7c-0.27-0.28-0.35-0.69-0.2-1.05
				c0.15-0.36,0.5-0.59,0.89-0.59h12.82c0.38,0,0.73,0.23,0.88,0.58c0.15,0.35,0.08,0.76-0.18,1.04l-6.29,6.7
				C194.89,56.74,194.64,56.85,194.37,56.86C194.37,56.86,194.37,56.86,194.37,56.86z M190.12,50.16l4.23,4.34l4.08-4.34H190.12z"/>
		</g>
		<g>
			<ellipse class="st0" cx="194.25" cy="47.81" rx="7.16" ry="4.04"/>
			<path class="st2" d="M194.25,52.81c-4.56,0-8.12-2.2-8.12-5.01c0-2.81,3.57-5.01,8.12-5.01c4.56,0,8.12,2.2,8.12,5.01
				C202.38,50.61,198.81,52.81,194.25,52.81z M194.25,44.73c-3.65,0-6.2,1.62-6.2,3.08c0,1.46,2.55,3.08,6.2,3.08
				c3.65,0,6.2-1.62,6.2-3.08C200.45,46.35,197.9,44.73,194.25,44.73z"/>
		</g>
		<g>
			<ellipse class="st0" cx="194.25" cy="62.88" rx="3.06" ry="1.27"/>
			<path class="st2" d="M194.25,65.11c-2.37,0-4.02-0.92-4.02-2.24c0-1.32,1.65-2.24,4.02-2.24c2.37,0,4.02,0.92,4.02,2.24
				C198.27,64.2,196.62,65.11,194.25,65.11z M192.43,62.88c0.36,0.15,1,0.31,1.82,0.31c0.82,0,1.46-0.16,1.82-0.31
				c-0.36-0.15-1-0.31-1.82-0.31C193.43,62.57,192.79,62.72,192.43,62.88z M196.4,63.08h0.01H196.4z"/>
		</g>
		<g>
			<line class="st0" x1="194.25" y1="62.13" x2="194.25" y2="55.89"/>
			<path class="st2" d="M194.25,63.09c-0.53,0-0.96-0.43-0.96-0.96v-6.24c0-0.53,0.43-0.96,0.96-0.96s0.96,0.43,0.96,0.96v6.24
				C195.21,62.66,194.78,63.09,194.25,63.09z"/>
		</g>
	</g>
	<g>
		<g>
			<polygon class="st0" points="84.5,55 77.98,48.3 90.8,48.3 			"/>
			<path class="st2" d="M84.5,55.97c-0.26,0-0.51-0.1-0.69-0.29l-6.53-6.7c-0.27-0.28-0.35-0.69-0.2-1.05
				c0.15-0.36,0.5-0.59,0.89-0.59H90.8c0.38,0,0.73,0.23,0.88,0.58c0.15,0.35,0.08,0.76-0.18,1.04l-6.29,6.7
				C85.02,55.85,84.77,55.96,84.5,55.97C84.51,55.97,84.5,55.97,84.5,55.97z M80.26,49.27l4.23,4.34l4.08-4.34H80.26z"/>
		</g>
		<g>
			<ellipse class="st0" cx="84.39" cy="46.92" rx="7.16" ry="4.04"/>
			<path class="st2" d="M84.39,51.92c-4.56,0-8.12-2.2-8.12-5.01c0-2.81,3.57-5.01,8.12-5.01c4.56,0,8.12,2.2,8.12,5.01
				C92.51,49.72,88.94,51.92,84.39,51.92z M84.39,43.84c-3.65,0-6.2,1.62-6.2,3.08c0,1.46,2.55,3.08,6.2,3.08s6.2-1.62,6.2-3.08
				C90.58,45.46,88.04,43.84,84.39,43.84z"/>
		</g>
		<g>
			<ellipse class="st0" cx="84.39" cy="61.99" rx="3.06" ry="1.27"/>
			<path class="st2" d="M84.39,64.22c-2.37,0-4.02-0.92-4.02-2.24c0-1.32,1.65-2.24,4.02-2.24c2.37,0,4.02,0.92,4.02,2.24
				C88.41,63.3,86.75,64.22,84.39,64.22z M82.56,61.99c0.36,0.15,1,0.31,1.82,0.31c0.82,0,1.46-0.16,1.82-0.31
				c-0.36-0.15-1-0.31-1.82-0.31C83.56,61.68,82.93,61.83,82.56,61.99z M86.54,62.19L86.54,62.19L86.54,62.19z"/>
		</g>
		<g>
			<line class="st0" x1="84.39" y1="61.24" x2="84.39" y2="55"/>
			<path class="st2" d="M84.39,62.2c-0.53,0-0.96-0.43-0.96-0.96V55c0-0.53,0.43-0.96,0.96-0.96c0.53,0,0.96,0.43,0.96,0.96v6.24
				C85.35,61.77,84.92,62.2,84.39,62.2z"/>
		</g>
	</g>
	<g>
		<g>
			<path class="st0" d="M158.15,41.75v-8.38h-5.08v8.55c0,0.22-0.18,0.41-0.41,0.41h0c-2.74,0.62-3.43,3.2-3.43,5.1v15.07
				c0,2.54,2.06,4.6,4.6,4.6h3.54c2.54,0,4.6-2.06,4.6-4.6V47.02c0-1.67-0.46-3.9-3.02-4.86h-0.41
				C158.33,42.16,158.15,41.98,158.15,41.75z"/>
			<path class="st2" d="M157.38,68.06h-3.54c-3.07,0-5.57-2.5-5.57-5.57V47.43c0-3.05,1.43-5.24,3.83-5.95v-8.11
				c0-0.53,0.43-0.96,0.96-0.96h5.08c0.53,0,0.96,0.43,0.96,0.96v7.84c0.06,0.01,0.13,0.03,0.19,0.05c1.66,0.62,3.65,2.13,3.65,5.76
				v15.47C162.95,65.56,160.45,68.06,157.38,68.06z M152.81,43.28c-2.35,0.58-2.61,3.08-2.61,4.14v15.07c0,2.01,1.63,3.64,3.64,3.64
				h3.54c2.01,0,3.64-1.63,3.64-3.64V47.02c0-2-0.73-3.27-2.24-3.9h-0.22c-0.76,0-1.37-0.61-1.37-1.37v-7.42h-3.15v7.59
				C154.04,42.63,153.5,43.21,152.81,43.28z"/>
		</g>
		<g>
			<ellipse class="st0" cx="155.61" cy="33.37" rx="2.71" ry="1.74"/>
			<path class="st2" d="M155.61,36.07c-2.06,0-3.67-1.19-3.67-2.7c0-1.51,1.61-2.7,3.67-2.7c2.06,0,3.67,1.19,3.67,2.7
				C159.28,34.88,157.67,36.07,155.61,36.07z M155.61,32.59c-1.08,0-1.74,0.5-1.74,0.78c0,0.27,0.66,0.77,1.74,0.77
				c1.06,0,1.74-0.51,1.74-0.77S156.68,32.59,155.61,32.59z"/>
		</g>
		<path class="st2" d="M156.51,53.22h-1.77c-3.54,0-6.43-2.4-6.43-5.36c0-0.53,0.43-0.96,0.96-0.96s0.96,0.43,0.96,0.96
			c0,1.89,2.02,3.43,4.5,3.43h1.77c2.48,0,4.5-1.54,4.5-3.43c0-0.53,0.43-0.96,0.96-0.96c0.53,0,0.96,0.43,0.96,0.96
			C162.94,50.81,160.05,53.22,156.51,53.22z"/>
		<path class="st2" d="M156.51,60.71h-1.77c-3.54,0-6.43-2.4-6.43-5.36c0-0.53,0.43-0.96,0.96-0.96s0.96,0.43,0.96,0.96
			c0,1.89,2.02,3.43,4.5,3.43h1.77c2.48,0,4.5-1.54,4.5-3.43c0-0.53,0.43-0.96,0.96-0.96c0.53,0,0.96,0.43,0.96,0.96
			C162.94,58.31,160.05,60.71,156.51,60.71z"/>
	</g>
	<g>
		<g>
			<path class="st0" d="M46.1,41.75v-8.38h-5.08v8.55c0,0.22-0.18,0.41-0.41,0.41h0c-2.74,0.62-3.43,3.2-3.43,5.1v15.07
				c0,2.54,2.06,4.6,4.6,4.6h3.54c2.54,0,4.6-2.06,4.6-4.6V47.02c0-1.67-0.46-3.9-3.02-4.86h-0.41
				C46.28,42.16,46.1,41.98,46.1,41.75z"/>
			<path class="st2" d="M45.33,68.06h-3.54c-3.07,0-5.57-2.5-5.57-5.57V47.43c0-3.05,1.43-5.24,3.83-5.95v-8.11
				c0-0.53,0.43-0.96,0.96-0.96h5.08c0.53,0,0.96,0.43,0.96,0.96v7.84c0.06,0.01,0.13,0.03,0.19,0.05c1.66,0.62,3.65,2.13,3.65,5.76
				v15.47C50.9,65.56,48.4,68.06,45.33,68.06z M40.76,43.28c-2.35,0.58-2.61,3.08-2.61,4.14v15.07c0,2.01,1.63,3.64,3.64,3.64h3.54
				c2.01,0,3.64-1.63,3.64-3.64V47.02c0-2-0.73-3.27-2.24-3.9h-0.22c-0.76,0-1.37-0.61-1.37-1.37v-7.42h-3.15v7.59
				C41.98,42.63,41.45,43.21,40.76,43.28z"/>
		</g>
		<g>
			<ellipse class="st0" cx="43.56" cy="33.37" rx="2.71" ry="1.74"/>
			<path class="st2" d="M43.56,36.07c-2.06,0-3.67-1.19-3.67-2.7c0-1.51,1.61-2.7,3.67-2.7c2.06,0,3.67,1.19,3.67,2.7
				C47.23,34.88,45.62,36.07,43.56,36.07z M43.56,32.59c-1.06,0-1.74,0.51-1.74,0.78s0.68,0.77,1.74,0.77
				c1.06,0,1.74-0.51,1.74-0.77S44.62,32.59,43.56,32.59z"/>
		</g>
		<path class="st2" d="M44.4,53.2h-1.79c-3.57,0-6.48-2.43-6.48-5.4c0-0.53,0.43-0.96,0.96-0.96s0.96,0.43,0.96,0.96
			c0,1.92,2.04,3.48,4.56,3.48h1.79c2.51,0,4.56-1.56,4.56-3.48c0-0.53,0.43-0.96,0.96-0.96s0.96,0.43,0.96,0.96
			C50.88,50.78,47.98,53.2,44.4,53.2z"/>
		<path class="st2" d="M44.4,60.77h-1.79c-3.57,0-6.48-2.43-6.48-5.4c0-0.53,0.43-0.96,0.96-0.96s0.96,0.43,0.96,0.96
			c0,1.92,2.04,3.48,4.56,3.48h1.79c2.51,0,4.56-1.56,4.56-3.48c0-0.53,0.43-0.96,0.96-0.96s0.96,0.43,0.96,0.96
			C50.88,58.35,47.98,60.77,44.4,60.77z"/>
	</g>
	<g>
		<polyline class="st0" points="81.89,16.84 81.89,28.22 72.17,37.94 91.85,37.94 81.89,28.22 		"/>
		<path class="st2" d="M91.85,39.38H72.17c-0.58,0-1.11-0.35-1.33-0.89c-0.22-0.54-0.1-1.16,0.31-1.57l9.3-9.3V16.84
			c0-0.8,0.65-1.44,1.44-1.44s1.44,0.65,1.44,1.44v10.77l9.52,9.29c0.42,0.41,0.55,1.03,0.33,1.58
			C92.96,39.03,92.43,39.38,91.85,39.38z M75.66,36.49H88.3l-6.4-6.25L75.66,36.49z"/>
	</g>
	<g>
		<polyline class="st0" points="26.69,16.84 26.69,28.22 16.97,37.94 36.64,37.94 26.69,28.22 		"/>
		<path class="st2" d="M36.64,39.38H16.97c-0.58,0-1.11-0.35-1.33-0.89c-0.22-0.54-0.1-1.16,0.31-1.57l9.3-9.3V16.84
			c0-0.8,0.65-1.44,1.44-1.44c0.8,0,1.44,0.65,1.44,1.44v10.77l9.52,9.29c0.42,0.41,0.55,1.03,0.33,1.58
			C37.76,39.03,37.23,39.38,36.64,39.38z M20.45,36.49h12.64l-6.4-6.25L20.45,36.49z"/>
	</g>
	<g>
		<polyline class="st0" points="192.3,16.84 192.3,28.22 182.58,37.94 202.26,37.94 192.3,28.22 		"/>
		<path class="st2" d="M202.26,39.38h-19.68c-0.58,0-1.11-0.35-1.33-0.89c-0.22-0.54-0.1-1.16,0.31-1.57l9.3-9.3V16.84
			c0-0.8,0.65-1.44,1.44-1.44c0.8,0,1.44,0.65,1.44,1.44v10.77l9.52,9.29c0.42,0.41,0.55,1.03,0.33,1.58
			C203.38,39.03,202.85,39.38,202.26,39.38z M186.07,36.49h12.64l-6.4-6.25L186.07,36.49z"/>
	</g>
	<g>
		<polyline class="st0" points="137.1,16.84 137.1,28.22 127.38,37.94 147.05,37.94 137.1,28.22 		"/>
		<path class="st2" d="M147.05,39.38h-19.68c-0.58,0-1.11-0.35-1.33-0.89c-0.22-0.54-0.1-1.16,0.31-1.57l9.3-9.3V16.84
			c0-0.8,0.65-1.44,1.44-1.44s1.44,0.65,1.44,1.44v10.77l9.52,9.29c0.42,0.41,0.55,1.03,0.33,1.58
			C148.17,39.03,147.64,39.38,147.05,39.38z M130.86,36.49h12.64l-6.4-6.25L130.86,36.49z"/>
	</g>
</g>
</svg>
