<?xml version="1.0" encoding="utf-8"?>
<!-- Generator: Adobe Illustrator 25.2.3, SVG Export Plug-In . SVG Version: 6.00 Build 0)  -->
<svg version="1.1" id="Layer_1" xmlns="http://www.w3.org/2000/svg" xmlns:xlink="http://www.w3.org/1999/xlink" x="0px" y="0px"
	 viewBox="0 0 256 256" style="enable-background:new 0 0 256 256;" xml:space="preserve">
<style type="text/css">
	.st0{fill:#FFFFFF;}
	.st1{fill:#FFE9B3;}
	.st2{fill:#77838D;}
</style>
<g>
	<path class="st0" d="M9.21,131.77h236.67c4.31,0,7.8,3.49,7.8,7.8v22.66c0,4.31-3.49,7.8-7.8,7.8H9.21c-4.31,0-7.8-3.49-7.8-7.8
		v-22.66C1.41,135.27,4.9,131.77,9.21,131.77z"/>
	<path class="st1" d="M16.94,146.87h223.02c4.15,0,7.51,3.36,7.51,7.51v3.04c0,4.15-3.36,7.51-7.51,7.51H16.94
		c-4.15,0-7.51-3.36-7.51-7.51v-3.04C9.42,150.24,12.79,146.87,16.94,146.87z"/>
	<path class="st2" d="M244.65,172.35H10.44c-6.26,0-11.35-5.09-11.35-11.35v-20.2c0-6.26,5.09-11.34,11.35-11.34h234.22
		c6.26,0,11.35,5.09,11.35,11.34V161C256,167.26,250.91,172.35,244.65,172.35z M10.44,134.09c-3.7,0-6.72,3.01-6.72,6.71V161
		c0,3.7,3.01,6.72,6.72,6.72h234.22c3.7,0,6.72-3.01,6.72-6.72v-20.2c0-3.7-3.01-6.71-6.72-6.71H10.44z"/>
	<g>
		
			<rect x="1.41" y="85.85" transform="matrix(-1 -1.620478e-10 1.620478e-10 -1 255.093 183.9952)" class="st0" width="252.28" height="12.29"/>
		<path class="st2" d="M256,100.46H-0.91V83.54H256V100.46z M3.72,95.83h247.65v-7.66H3.72V95.83z"/>
	</g>
	<g>
		<g>
			<path class="st0" d="M199.21,142.2v10.66c0,2.68,3.2,4.85,7.15,4.85c3.95,0,7.15-2.17,7.15-4.85V142.2H199.21z"/>
			<path class="st2" d="M206.35,158.87c-4.66,0-8.31-2.64-8.31-6v-11.82h16.61v11.82C214.66,156.23,211.01,158.87,206.35,158.87z
				 M200.36,143.36v9.5c0,2,2.74,3.69,5.99,3.69c3.25,0,5.99-1.69,5.99-3.69v-9.5H200.36z"/>
		</g>
		<g>
			<ellipse class="st0" cx="206.47" cy="141.84" rx="7.27" ry="4.85"/>
			<path class="st2" d="M206.47,147.84c-4.72,0-8.43-2.64-8.43-6c0-3.37,3.7-6,8.43-6s8.43,2.64,8.43,6
				C214.9,145.2,211.2,147.84,206.47,147.84z M206.47,138.15c-3.31,0-6.11,1.69-6.11,3.69s2.8,3.69,6.11,3.69s6.11-1.69,6.11-3.69
				S209.79,138.15,206.47,138.15z"/>
		</g>
		<g>
			<polyline class="st0" points="198.52,143.04 194.71,143.04 194.71,152.87 198.85,152.87 			"/>
			<path class="st2" d="M198.85,154.02h-4.14c-0.64,0-1.16-0.52-1.16-1.16v-9.83c0-0.64,0.52-1.16,1.16-1.16h3.81
				c0.64,0,1.16,0.52,1.16,1.16c0,0.64-0.52,1.16-1.16,1.16h-2.65v7.52h2.98c0.64,0,1.16,0.52,1.16,1.16
				S199.49,154.02,198.85,154.02z"/>
		</g>
	</g>
	<g>
		<g>
			<polygon class="st0" points="227.21,146.76 219.36,138.71 234.78,138.71 			"/>
			<path class="st2" d="M227.21,147.92c-0.31,0-0.61-0.13-0.83-0.35l-7.84-8.05c-0.32-0.33-0.42-0.83-0.24-1.26
				c0.18-0.43,0.6-0.71,1.07-0.71h15.41c0.46,0,0.88,0.27,1.06,0.7c0.18,0.42,0.1,0.92-0.22,1.25l-7.57,8.05
				c-0.22,0.23-0.52,0.36-0.83,0.37C227.22,147.92,227.21,147.92,227.21,147.92z M222.11,139.87l5.09,5.22l4.91-5.22H222.11z"/>
		</g>
		<g>
			<ellipse class="st0" cx="227.07" cy="137.04" rx="8.61" ry="4.86"/>
			<path class="st2" d="M227.07,143.06c-5.48,0-9.77-2.64-9.77-6.02c0-3.37,4.29-6.02,9.77-6.02c5.48,0,9.77,2.64,9.77,6.02
				C236.84,140.42,232.55,143.06,227.07,143.06z M227.07,133.34c-4.39,0-7.45,1.95-7.45,3.7s3.06,3.7,7.45,3.7
				c4.39,0,7.45-1.95,7.45-3.7S231.46,133.34,227.07,133.34z"/>
		</g>
		<g>
			<ellipse class="st0" cx="227.07" cy="155.16" rx="3.68" ry="1.53"/>
			<path class="st2" d="M227.07,157.85c-2.85,0-4.84-1.11-4.84-2.69c0-1.58,1.99-2.69,4.84-2.69c2.85,0,4.83,1.11,4.83,2.69
				C231.9,156.74,229.92,157.85,227.07,157.85z M224.88,155.16c0.44,0.19,1.2,0.37,2.19,0.37c0.99,0,1.75-0.19,2.19-0.37
				c-0.44-0.19-1.2-0.37-2.19-0.37C226.08,154.79,225.32,154.97,224.88,155.16z M229.66,155.4h0.01H229.66z"/>
		</g>
		<g>
			<line class="st0" x1="227.07" y1="154.26" x2="227.07" y2="146.76"/>
			<path class="st2" d="M227.07,155.42c-0.64,0-1.16-0.52-1.16-1.16v-7.5c0-0.64,0.52-1.16,1.16-1.16c0.64,0,1.16,0.52,1.16,1.16
				v7.5C228.23,154.9,227.71,155.42,227.07,155.42z"/>
		</g>
	</g>
	<g>
		<g>
			<polygon class="st0" points="95.14,145.69 87.29,137.64 102.71,137.64 			"/>
			<path class="st2" d="M95.14,146.85c-0.31,0-0.61-0.13-0.83-0.35l-7.85-8.05c-0.32-0.33-0.42-0.83-0.24-1.26
				c0.18-0.43,0.6-0.71,1.07-0.71h15.41c0.46,0,0.88,0.27,1.06,0.7c0.18,0.42,0.1,0.92-0.22,1.25l-7.57,8.05
				c-0.22,0.23-0.52,0.36-0.83,0.37C95.15,146.85,95.14,146.85,95.14,146.85z M90.04,138.8l5.09,5.22l4.91-5.22H90.04z"/>
		</g>
		<g>
			<ellipse class="st0" cx="95" cy="135.97" rx="8.61" ry="4.86"/>
			<path class="st2" d="M95,141.99c-5.48,0-9.77-2.64-9.77-6.02c0-3.37,4.29-6.02,9.77-6.02s9.77,2.64,9.77,6.02
				C104.77,139.35,100.48,141.99,95,141.99z M95,132.27c-4.39,0-7.45,1.95-7.45,3.7s3.06,3.7,7.45,3.7s7.45-1.95,7.45-3.7
				S99.39,132.27,95,132.27z"/>
		</g>
		<g>
			<ellipse class="st0" cx="95" cy="154.09" rx="3.68" ry="1.53"/>
			<path class="st2" d="M95,156.78c-2.85,0-4.84-1.11-4.84-2.69c0-1.58,1.99-2.69,4.84-2.69c2.85,0,4.84,1.11,4.84,2.69
				C99.83,155.67,97.85,156.78,95,156.78z M92.81,154.09c0.44,0.19,1.2,0.37,2.19,0.37s1.75-0.19,2.19-0.37
				c-0.44-0.19-1.2-0.37-2.19-0.37S93.25,153.9,92.81,154.09z M97.59,154.33h0.01H97.59z"/>
		</g>
		<g>
			<line class="st0" x1="95" y1="153.19" x2="95" y2="145.69"/>
			<path class="st2" d="M95,154.35c-0.64,0-1.16-0.52-1.16-1.16v-7.5c0-0.64,0.52-1.16,1.16-1.16c0.64,0,1.16,0.52,1.16,1.16v7.5
				C96.16,153.83,95.64,154.35,95,154.35z"/>
		</g>
	</g>
	<g>
		<g>
			<path class="st0" d="M183.67,129.76v-10.08h-6.1v10.28c0,0.27-0.22,0.49-0.49,0.49l0,0c-3.3,0.74-4.12,3.85-4.12,6.13v18.11
				c0,3.06,2.48,5.53,5.53,5.53h4.26c3.06,0,5.53-2.48,5.53-5.53v-18.6c0-2.01-0.55-4.69-3.63-5.84h-0.49
				C183.89,130.25,183.67,130.03,183.67,129.76z"/>
			<path class="st2" d="M182.75,161.39h-4.26c-3.69,0-6.69-3-6.69-6.69v-18.11c0-3.66,1.71-6.3,4.61-7.15v-9.75
				c0-0.64,0.52-1.16,1.16-1.16h6.1c0.64,0,1.16,0.52,1.16,1.16v9.42c0.08,0.01,0.15,0.03,0.22,0.06c2,0.75,4.38,2.56,4.38,6.93
				v18.6C189.44,158.39,186.44,161.39,182.75,161.39z M177.25,131.61c-2.83,0.69-3.14,3.71-3.14,4.98v18.11
				c0,2.41,1.96,4.38,4.38,4.38h4.26c2.41,0,4.38-1.96,4.38-4.38v-18.6c0-2.4-0.88-3.93-2.69-4.69h-0.27
				c-0.91,0-1.65-0.74-1.65-1.65v-8.92h-3.79v9.13C178.73,130.82,178.08,131.52,177.25,131.61z"/>
		</g>
		<g>
			<ellipse class="st0" cx="180.62" cy="119.69" rx="3.25" ry="2.09"/>
			<path class="st2" d="M180.62,122.93c-2.47,0-4.41-1.43-4.41-3.25c0-1.82,1.94-3.25,4.41-3.25s4.41,1.43,4.41,3.25
				C185.03,121.51,183.1,122.93,180.62,122.93z M180.62,118.76c-1.3,0-2.1,0.6-2.1,0.93c0,0.33,0.8,0.93,2.1,0.93
				c1.28,0,2.1-0.61,2.1-0.93S181.9,118.76,180.62,118.76z"/>
		</g>
		<path class="st2" d="M181.7,143.55h-2.13c-4.26,0-7.73-2.89-7.73-6.44c0-0.64,0.52-1.16,1.16-1.16s1.16,0.52,1.16,1.16
			c0,2.28,2.43,4.13,5.41,4.13h2.13c2.98,0,5.41-1.85,5.41-4.13c0-0.64,0.52-1.16,1.16-1.16s1.16,0.52,1.16,1.16
			C189.43,140.66,185.96,143.55,181.7,143.55z"/>
		<path class="st2" d="M181.7,152.56h-2.13c-4.26,0-7.73-2.89-7.73-6.44c0-0.64,0.52-1.16,1.16-1.16s1.16,0.52,1.16,1.16
			c0,2.28,2.43,4.13,5.41,4.13h2.13c2.98,0,5.41-1.85,5.41-4.13c0-0.64,0.52-1.16,1.16-1.16s1.16,0.52,1.16,1.16
			C189.43,149.67,185.96,152.56,181.7,152.56z"/>
	</g>
	<g>
		<g>
			<path class="st0" d="M48.98,129.76v-10.08h-6.1v10.28c0,0.27-0.22,0.49-0.49,0.49h0c-3.3,0.74-4.12,3.85-4.12,6.13v18.11
				c0,3.06,2.48,5.53,5.53,5.53h4.26c3.06,0,5.53-2.48,5.53-5.53v-18.6c0-2.01-0.55-4.69-3.63-5.84h-0.49
				C49.19,130.25,48.98,130.03,48.98,129.76z"/>
			<path class="st2" d="M48.05,161.39H43.8c-3.69,0-6.69-3-6.69-6.69v-18.11c0-3.66,1.71-6.3,4.61-7.15v-9.75
				c0-0.64,0.52-1.16,1.16-1.16h6.1c0.64,0,1.16,0.52,1.16,1.16v9.42c0.08,0.01,0.15,0.03,0.22,0.06c2,0.75,4.38,2.56,4.38,6.93
				v18.6C54.74,158.39,51.74,161.39,48.05,161.39z M42.56,131.61c-2.83,0.69-3.14,3.71-3.14,4.98v18.11c0,2.41,1.96,4.38,4.38,4.38
				h4.26c2.41,0,4.38-1.96,4.38-4.38v-18.6c0-2.4-0.88-3.93-2.69-4.69h-0.27c-0.91,0-1.65-0.74-1.65-1.65v-8.92h-3.79v9.13
				C44.03,130.82,43.38,131.52,42.56,131.61z"/>
		</g>
		<g>
			<ellipse class="st0" cx="45.92" cy="119.69" rx="3.25" ry="2.09"/>
			<path class="st2" d="M45.92,122.93c-2.47,0-4.41-1.43-4.41-3.25c0-1.82,1.94-3.25,4.41-3.25s4.41,1.43,4.41,3.25
				C50.33,121.51,48.4,122.93,45.92,122.93z M45.92,118.76c-1.28,0-2.1,0.61-2.1,0.93s0.82,0.93,2.1,0.93c1.28,0,2.1-0.61,2.1-0.93
				S47.2,118.76,45.92,118.76z"/>
		</g>
		<path class="st2" d="M46.93,143.53h-2.15c-4.3,0-7.79-2.92-7.79-6.5c0-0.64,0.52-1.16,1.16-1.16c0.64,0,1.16,0.52,1.16,1.16
			c0,2.31,2.46,4.18,5.48,4.18h2.15c3.02,0,5.48-1.88,5.48-4.18c0-0.64,0.52-1.16,1.16-1.16s1.16,0.52,1.16,1.16
			C54.73,140.61,51.23,143.53,46.93,143.53z"/>
		<path class="st2" d="M46.93,152.63h-2.15c-4.3,0-7.79-2.92-7.79-6.5c0-0.64,0.52-1.16,1.16-1.16c0.64,0,1.16,0.52,1.16,1.16
			c0,2.31,2.46,4.18,5.48,4.18h2.15c3.02,0,5.48-1.88,5.48-4.18c0-0.64,0.52-1.16,1.16-1.16s1.16,0.52,1.16,1.16
			C54.73,149.72,51.23,152.63,46.93,152.63z"/>
	</g>
	<g>
		<polyline class="st0" points="92,99.82 92,113.5 80.32,125.18 103.97,125.18 92,113.5 		"/>
		<path class="st2" d="M103.97,126.92H80.32c-0.7,0-1.34-0.42-1.6-1.07c-0.27-0.65-0.12-1.4,0.38-1.89l11.18-11.18V99.82
			c0-0.96,0.78-1.74,1.74-1.74c0.96,0,1.74,0.78,1.74,1.74v12.95l11.45,11.17c0.51,0.49,0.66,1.24,0.4,1.9
			C105.31,126.49,104.68,126.92,103.97,126.92z M84.51,123.44h15.2l-7.69-7.51L84.51,123.44z"/>
	</g>
	<g>
		<polyline class="st0" points="25.64,99.82 25.64,113.5 13.95,125.18 37.61,125.18 25.64,113.5 		"/>
		<path class="st2" d="M37.61,126.92H13.95c-0.7,0-1.34-0.42-1.6-1.07c-0.27-0.65-0.12-1.4,0.38-1.89l11.18-11.18V99.82
			c0-0.96,0.78-1.74,1.74-1.74s1.74,0.78,1.74,1.74v12.95l11.45,11.17c0.51,0.49,0.66,1.24,0.4,1.9
			C38.95,126.49,38.31,126.92,37.61,126.92z M18.14,123.44h15.2l-7.69-7.51L18.14,123.44z"/>
	</g>
	<g>
		<polyline class="st0" points="224.73,99.82 224.73,113.5 213.04,125.18 236.7,125.18 224.73,113.5 		"/>
		<path class="st2" d="M236.7,126.92h-23.65c-0.7,0-1.34-0.42-1.6-1.07c-0.27-0.65-0.12-1.4,0.38-1.89l11.18-11.18V99.82
			c0-0.96,0.78-1.74,1.74-1.74c0.96,0,1.74,0.78,1.74,1.74v12.95l11.45,11.17c0.51,0.49,0.66,1.24,0.4,1.9
			C238.04,126.49,237.4,126.92,236.7,126.92z M217.23,123.44h15.2l-7.69-7.51L217.23,123.44z"/>
	</g>
	<g>
		<polyline class="st0" points="158.36,99.82 158.36,113.5 146.68,125.18 170.33,125.18 158.36,113.5 		"/>
		<path class="st2" d="M170.33,126.92h-23.65c-0.7,0-1.34-0.42-1.6-1.07c-0.27-0.65-0.12-1.4,0.38-1.89l11.18-11.18V99.82
			c0-0.96,0.78-1.74,1.74-1.74s1.74,0.78,1.74,1.74v12.95l11.45,11.17c0.51,0.49,0.66,1.24,0.4,1.9
			C171.67,126.49,171.04,126.92,170.33,126.92z M150.87,123.44h15.2l-7.69-7.51L150.87,123.44z"/>
	</g>
</g>
</svg>
