<?xml version="1.0" encoding="utf-8"?>
<!-- Generator: Adobe Illustrator 25.2.3, SVG Export Plug-In . SVG Version: 6.00 Build 0)  -->
<svg version="1.1" id="Layer_1" xmlns="http://www.w3.org/2000/svg" xmlns:xlink="http://www.w3.org/1999/xlink" x="0px" y="0px"
	 viewBox="0 0 256 256" style="enable-background:new 0 0 256 256;" xml:space="preserve">
<style type="text/css">
	.st0{fill:#FFFFFF;}
	.st1{fill:#77838D;}
</style>
<g>
	<g>
		<path class="st0" d="M237.61,249.12H19.02c-6.49,0-11.75-5.26-11.75-11.75V18.78c0-6.49,5.26-11.75,11.75-11.75l218.59,0
			c6.49,0,11.75,5.26,11.75,11.75v218.59C249.37,243.86,244.1,249.12,237.61,249.12z"/>
		<path class="st1" d="M210.38,255.76H46.25c-25.15,0-45.62-20.47-45.62-45.62V46.01c0-25.15,20.46-45.61,45.62-45.61h164.13
			c25.15,0,45.62,20.46,45.62,45.61v164.13C256,235.29,235.54,255.76,210.38,255.76z M46.25,13.66c-17.84,0-32.35,14.51-32.35,32.35
			v164.13c0,17.84,14.51,32.35,32.35,32.35h164.13c17.84,0,32.35-14.51,32.35-32.35V46.01c0-17.84-14.51-32.35-32.35-32.35H46.25z"
			/>
	</g>
</g>
</svg>
