<?xml version="1.0" encoding="utf-8"?>
<!-- Generator: Adobe Illustrator 25.2.3, SVG Export Plug-In . SVG Version: 6.00 Build 0)  -->
<svg version="1.1" id="Layer_1" xmlns="http://www.w3.org/2000/svg" xmlns:xlink="http://www.w3.org/1999/xlink" x="0px" y="0px"
	 viewBox="0 0 256 256" style="enable-background:new 0 0 256 256;" xml:space="preserve">
<style type="text/css">
	.st0{fill:#FFFFFF;}
	.st1{fill:#77838D;}
</style>
<g>
	<g>
		<circle class="st0" cx="128" cy="146.64" r="78.36"/>
		<path class="st1" d="M128,229.9c-45.91,0-83.26-37.35-83.26-83.26S82.09,63.39,128,63.39s83.26,37.35,83.26,83.26
			S173.91,229.9,128,229.9z M128,73.17c-40.51,0-73.47,32.96-73.47,73.47s32.96,73.47,73.47,73.47s73.47-32.96,73.47-73.47
			S168.51,73.17,128,73.17z"/>
	</g>
	<g>
		<g>
			<path class="st0" d="M20.14,145.3c7.35,0,13.62-5.4,14.6-12.68C40.95,86.69,80.4,51.17,128,51.17c47.6,0,87.06,35.52,93.26,81.44
				c0.98,7.28,7.26,12.69,14.61,12.68c0.15,0,0.3,0,0.45,0c8.85,0,15.84-7.75,14.67-16.51C242.89,68.14,190.82,21.21,128,21.21
				c-62.82,0-114.89,46.93-122.98,107.57c-1.17,8.77,5.82,16.51,14.67,16.51C19.84,145.3,19.99,145.3,20.14,145.3z"/>
			<path class="st1" d="M235.86,150.19c-9.78,0-18.14-7.27-19.45-16.92c-5.95-44.01-43.95-77.2-88.41-77.2
				c-44.45,0-82.46,33.19-88.41,77.2c-1.3,9.65-9.67,16.92-19.46,16.92h-0.45c-5.7,0-11.12-2.46-14.87-6.75
				c-3.69-4.21-5.38-9.79-4.65-15.3C8.68,64.39,63.63,16.32,128,16.32c64.37,0,119.33,48.07,127.83,111.82
				c0.74,5.51-0.96,11.09-4.65,15.3c-3.75,4.29-9.17,6.75-14.87,6.75H235.86C235.86,150.19,235.86,150.19,235.86,150.19z M128,46.28
				c49.33,0,91.51,36.83,98.11,85.68c0.65,4.81,4.84,8.45,9.75,8.45h0h0.45c2.87,0,5.61-1.24,7.5-3.41
				c1.86-2.12,2.68-4.81,2.31-7.56C238.27,70.53,187.49,26.1,128,26.1C68.52,26.1,17.73,70.52,9.87,129.43
				c-0.37,2.75,0.45,5.44,2.31,7.56c1.9,2.17,4.63,3.41,7.51,3.41h0.44c4.91,0,9.11-3.63,9.76-8.45
				C36.49,83.11,78.67,46.28,128,46.28z"/>
		</g>
	</g>
</g>
</svg>
