<?xml version="1.0" encoding="utf-8"?>
<!-- Generator: Adobe Illustrator 25.2.3, SVG Export Plug-In . SVG Version: 6.00 Build 0)  -->
<svg version="1.1" id="Layer_1" xmlns="http://www.w3.org/2000/svg" xmlns:xlink="http://www.w3.org/1999/xlink" x="0px" y="0px"
	 viewBox="0 0 256 256" style="enable-background:new 0 0 256 256;" xml:space="preserve">
<style type="text/css">
	.st0{fill:#FFFFFF;}
	.st1{fill:#77838D;}
</style>
<g>
	<g>
		<path class="st0" d="M199.08,248.91H61.18c-20.38,0-36.34-17.55-34.4-37.84L38.42,89.43c1.26-13.16,12.31-23.2,25.53-23.2h132.36
			c13.22,0,24.27,10.04,25.53,23.2l11.64,121.64C235.42,231.36,219.47,248.91,199.08,248.91z"/>
		<path class="st1" d="M199.08,254.53H61.18c-11.29,0-22.13-4.79-29.72-13.15c-7.6-8.36-11.33-19.6-10.26-30.84L32.83,88.89
			c1.54-16.12,14.92-28.28,31.12-28.28h132.36c16.2,0,29.57,12.16,31.12,28.28l11.64,121.64c1.07,11.24-2.66,22.48-10.26,30.84
			C221.21,249.73,210.38,254.53,199.08,254.53z M63.95,71.84c-10.38,0-18.95,7.79-19.94,18.12L32.37,211.6
			c-0.79,8.22,1.84,16.11,7.39,22.22s13.16,9.48,21.42,9.48h137.9c8.26,0,15.86-3.37,21.42-9.48c5.55-6.11,8.18-14,7.39-22.22
			L216.25,89.96c-0.99-10.33-9.56-18.12-19.94-18.12H63.95z"/>
	</g>
	<g>
		<path class="st0" d="M33.58,58.65l-19-22.5C6.43,22.46,16.94,5.57,33.61,5.57h187.89c16.27,0,26.82,16.17,19.46,29.83
			l-23.63,33.75H52.61C44.71,69.15,37.43,65.14,33.58,58.65z"/>
		<path class="st1" d="M217.33,73.36H52.61c-9.24,0-17.81-4.68-22.46-12.25L11.36,38.87c-0.15-0.18-0.28-0.36-0.4-0.56
			c-4.44-7.46-4.54-16.42-0.25-23.96C15.33,6.22,23.9,1.36,33.61,1.36h187.88c9.49,0,17.95,4.69,22.64,12.54
			c4.34,7.27,4.54,16.05,0.53,23.5c-0.08,0.15-0.16,0.29-0.26,0.42l-23.62,33.75C219.99,72.69,218.7,73.36,217.33,73.36z
			 M18.03,33.72l18.76,22.22c0.15,0.18,0.28,0.36,0.4,0.56c3.1,5.21,9.01,8.44,15.42,8.44h162.52l22.22-31.74
			c2.52-4.84,2.36-10.28-0.45-14.99c-3.15-5.28-8.91-8.43-15.41-8.43H33.61c-6.65,0-12.47,3.26-15.58,8.73
			C15.27,23.36,15.28,28.88,18.03,33.72z"/>
	</g>
	<g>
		<path class="st0" d="M34,61.42l-12.6-16.57c-7.67-10.08,2.23-22.52,17.92-22.52l176.91,0c15.32,0,25.25,11.9,18.32,21.97
			L221.8,62.81c-2.73,3.97-7.25,6.34-12.07,6.34H51.92C44.49,69.15,37.63,66.19,34,61.42z"/>
		<path class="st1" d="M209.73,73.36H51.92c-8.71,0-16.86-3.6-21.27-9.39L18.04,47.4c-3.94-5.17-4.6-11.35-1.83-16.95
			c3.71-7.49,12.78-12.32,23.1-12.32h176.91c10.1,0,19.09,4.69,22.91,11.96c2.84,5.4,2.43,11.45-1.12,16.61L225.26,65.2
			C221.74,70.31,215.93,73.36,209.73,73.36z M39.31,26.55c-8.13,0-13.67,3.84-15.55,7.64c-1.34,2.7-1,5.51,0.98,8.12l12.61,16.57
			c0,0,0,0,0,0c2.8,3.69,8.52,6.07,14.57,6.07h157.81c3.43,0,6.65-1.69,8.6-4.52l12.75-18.51c2.23-3.24,1.56-6.09,0.6-7.92
			c-1.95-3.71-7.48-7.45-15.45-7.45H39.31z"/>
	</g>
</g>
</svg>
