<?xml version="1.0" encoding="utf-8"?>
<!-- Generator: Adobe Illustrator 25.2.3, SVG Export Plug-In . SVG Version: 6.00 Build 0)  -->
<svg version="1.1" id="Layer_1" xmlns="http://www.w3.org/2000/svg" xmlns:xlink="http://www.w3.org/1999/xlink" x="0px" y="0px"
	 viewBox="0 0 256 256" style="enable-background:new 0 0 256 256;" xml:space="preserve">
<style type="text/css">
	.st0{fill:#FFFFFF;}
	.st1{fill:#77838D;}
</style>
<g>
	<g>
		<path class="st0" d="M159.12,195.34H97.51c-20.16,0-36.5-16.34-36.5-36.5V97.23c0-20.16,16.34-36.5,36.5-36.5h61.62
			c20.16,0,36.5,16.34,36.5,36.5v61.62C195.62,179,179.28,195.34,159.12,195.34z"/>
		<path class="st1" d="M128.31,199.03c-39.15,0-71-31.85-71-71s31.85-71,71-71s71,31.85,71,71S167.46,199.03,128.31,199.03z
			 M128.31,64.41c-35.08,0-63.62,28.54-63.62,63.62s28.54,63.62,63.62,63.62s63.62-28.54,63.62-63.62S163.39,64.41,128.31,64.41z"/>
	</g>
	<g>
		<g>
			<g>
				<path class="st0" d="M19.92,108.83h26.52c2.18,0,3.94,1.76,3.94,3.94v30.53c0,2.18-1.76,3.94-3.94,3.94H19.92
					c-2.18,0-3.94-1.76-3.94-3.94v-30.53C15.99,110.59,17.75,108.83,19.92,108.83z"/>
				<path class="st1" d="M43.12,150H23.25c-5.53,0-10.03-4.5-10.03-10.03v-23.88c0-5.53,4.5-10.03,10.03-10.03h19.88
					c5.53,0,10.03,4.5,10.03,10.03v23.88C53.15,145.5,48.65,150,43.12,150z M23.25,111.6c-2.48,0-4.5,2.02-4.5,4.5v23.88
					c0,2.48,2.02,4.5,4.5,4.5h19.88c2.48,0,4.5-2.02,4.5-4.5v-23.88c0-2.48-2.02-4.5-4.5-4.5H23.25z"/>
			</g>
			<g>
				<path class="st0" d="M5.55,108.83h5.25c1.72,0,3.11,1.39,3.11,3.11v32.19c0,1.72-1.39,3.11-3.11,3.11H5.55
					c-1.72,0-3.11-1.39-3.11-3.11v-32.19C2.44,110.22,3.83,108.83,5.55,108.83z"/>
				<path class="st1" d="M8.18,150c-4.69,0-8.5-3.81-8.5-8.5v-26.93c0-4.69,3.81-8.5,8.5-8.5s8.5,3.81,8.5,8.5v26.93
					C16.68,146.19,12.86,150,8.18,150z M8.18,111.6c-1.64,0-2.97,1.33-2.97,2.97v26.93c0,1.64,1.33,2.97,2.97,2.97
					s2.97-1.33,2.97-2.97v-26.93C11.15,112.93,9.81,111.6,8.18,111.6z"/>
			</g>
		</g>
		<g>
			<g>
				<path class="st0" d="M235.75,147.24h-26.52c-2.18,0-3.94-1.76-3.94-3.94v-30.53c0-2.18,1.76-3.94,3.94-3.94l26.52,0
					c2.18,0,3.94,1.76,3.94,3.94v30.53C239.69,145.47,237.93,147.24,235.75,147.24z"/>
				<path class="st1" d="M232.43,150h-19.88c-5.53,0-10.03-4.5-10.03-10.03v-23.88c0-5.53,4.5-10.03,10.03-10.03h19.88
					c5.53,0,10.03,4.5,10.03,10.03v23.88C242.45,145.5,237.96,150,232.43,150z M212.55,111.6c-2.48,0-4.5,2.02-4.5,4.49v23.88
					c0,2.48,2.02,4.5,4.5,4.5h19.88c2.48,0,4.5-2.02,4.5-4.5v-23.88c0-2.48-2.02-4.49-4.5-4.49H212.55z"/>
			</g>
			<g>
				<path class="st0" d="M250.12,147.24h-5.25c-1.72,0-3.11-1.39-3.11-3.11v-32.19c0-1.72,1.39-3.11,3.11-3.11h5.25
					c1.72,0,3.11,1.39,3.11,3.11v32.19C253.23,145.84,251.84,147.24,250.12,147.24z"/>
				<path class="st1" d="M247.5,150c-4.69,0-8.5-3.81-8.5-8.5v-26.94c0-4.69,3.81-8.5,8.5-8.5c4.69,0,8.5,3.81,8.5,8.5v26.94
					C256,146.19,252.19,150,247.5,150z M247.5,111.6c-1.64,0-2.97,1.33-2.97,2.97v26.94c0,1.64,1.33,2.97,2.97,2.97
					c1.64,0,2.97-1.33,2.97-2.97v-26.94C250.47,112.93,249.14,111.6,247.5,111.6z"/>
			</g>
		</g>
	</g>
	<g>
		<g>
			<g>
				<path class="st0" d="M147.04,20.12v26.52c0,2.18-1.76,3.94-3.94,3.94h-30.53c-2.18,0-3.94-1.76-3.94-3.94l0-26.52
					c0-2.18,1.76-3.94,3.94-3.94h30.53C145.28,16.18,147.04,17.95,147.04,20.12z"/>
				<path class="st1" d="M139.78,53.35H115.9c-5.53,0-10.03-4.5-10.03-10.03V23.45c0-5.53,4.5-10.03,10.03-10.03h23.88
					c5.53,0,10.03,4.5,10.03,10.03v19.88C149.81,48.85,145.31,53.35,139.78,53.35z M115.9,18.95c-2.48,0-4.5,2.02-4.5,4.5v19.88
					c0,2.48,2.02,4.5,4.5,4.5h23.88c2.48,0,4.5-2.02,4.5-4.5V23.45c0-2.48-2.02-4.5-4.5-4.5H115.9z"/>
			</g>
			<g>
				<path class="st0" d="M147.04,5.75V11c0,1.72-1.39,3.11-3.11,3.11h-32.19c-1.72,0-3.11-1.39-3.11-3.11V5.75
					c0-1.72,1.39-3.11,3.11-3.11h32.19C145.65,2.64,147.04,4.03,147.04,5.75z"/>
				<path class="st1" d="M141.3,16.88h-26.93c-4.69,0-8.5-3.81-8.5-8.5c0-4.69,3.81-8.5,8.5-8.5h26.93c4.69,0,8.5,3.81,8.5,8.5
					C149.81,13.06,145.99,16.88,141.3,16.88z M114.37,5.4c-1.64,0-2.97,1.33-2.97,2.97c0,1.64,1.33,2.97,2.97,2.97h26.93
					c1.64,0,2.97-1.33,2.97-2.97v0c0-1.64-1.33-2.97-2.97-2.97H114.37z"/>
			</g>
		</g>
		<g>
			<g>
				<path class="st0" d="M108.63,235.95v-26.52c0-2.18,1.76-3.94,3.94-3.94h30.53c2.18,0,3.94,1.76,3.94,3.94v26.52
					c0,2.18-1.76,3.94-3.94,3.94h-30.53C110.4,239.89,108.63,238.12,108.63,235.95z"/>
				<path class="st1" d="M139.78,242.65H115.9c-5.53,0-10.03-4.5-10.03-10.03v-19.88c0-5.53,4.5-10.03,10.03-10.03h23.88
					c5.53,0,10.03,4.5,10.03,10.03v19.88C149.81,238.15,145.31,242.65,139.78,242.65z M115.9,208.25c-2.48,0-4.5,2.02-4.5,4.5v19.88
					c0,2.48,2.02,4.5,4.5,4.5h23.88c2.48,0,4.5-2.02,4.5-4.5v-19.88c0-2.48-2.02-4.5-4.5-4.5H115.9z"/>
			</g>
			<g>
				<path class="st0" d="M108.63,250.32v-5.25c0-1.72,1.39-3.11,3.11-3.11h32.19c1.72,0,3.11,1.39,3.11,3.11v5.25
					c0,1.72-1.39,3.11-3.11,3.11h-32.19C110.03,253.43,108.63,252.04,108.63,250.32z"/>
				<path class="st1" d="M141.3,256.2h-26.93c-4.69,0-8.5-3.81-8.5-8.5c0-4.69,3.81-8.5,8.5-8.5h26.93c4.69,0,8.5,3.81,8.5,8.5
					C149.81,252.38,145.99,256.2,141.3,256.2z M114.37,244.72c-1.64,0-2.97,1.33-2.97,2.97c0,1.64,1.33,2.97,2.97,2.97h26.93
					c1.64,0,2.97-1.33,2.97-2.97c0-1.64-1.33-2.97-2.97-2.97H114.37z"/>
			</g>
		</g>
	</g>
</g>
</svg>
