<?xml version="1.0" encoding="utf-8"?>
<!-- Generator: Adobe Illustrator 25.2.3, SVG Export Plug-In . SVG Version: 6.00 Build 0)  -->
<svg version="1.1" id="Layer_1" xmlns="http://www.w3.org/2000/svg" xmlns:xlink="http://www.w3.org/1999/xlink" x="0px" y="0px"
	 viewBox="0 0 256 146" style="enable-background:new 0 0 256 146;" xml:space="preserve">
<style type="text/css">
	.st0{fill:#FFFFFF;}
	.st1{fill:#77838D;}
</style>
<g>
	<g>
		<path class="st0" d="M240.45,141.98H15.62c-6.49,0-11.75-5.26-11.75-11.75V16.01c0-6.49,5.26-11.75,11.75-11.75h224.83
			c6.49,0,11.75,5.26,11.75,11.75v114.22C252.2,136.72,246.94,141.98,240.45,141.98z"/>
		<path class="st1" d="M230.03,145.75H26.04c-14.31,0-25.95-11.64-25.95-25.95V26.43c0-14.31,11.64-25.95,25.95-25.95h203.98
			c14.31,0,25.95,11.64,25.95,25.95v93.37C255.98,134.11,244.33,145.75,230.03,145.75z M26.04,8.03c-10.15,0-18.4,8.26-18.4,18.4
			v93.37c0,10.15,8.26,18.4,18.4,18.4h203.98c10.15,0,18.4-8.26,18.4-18.4V26.43c0-10.15-8.26-18.4-18.4-18.4H26.04z"/>
	</g>
</g>
</svg>
