<?xml version="1.0" encoding="utf-8"?>
<!-- Generator: Adobe Illustrator 25.2.3, SVG Export Plug-In . SVG Version: 6.00 Build 0)  -->
<svg version="1.1" id="Layer_1" xmlns="http://www.w3.org/2000/svg" xmlns:xlink="http://www.w3.org/1999/xlink" x="0px" y="0px"
	 viewBox="0 0 215 142" style="enable-background:new 0 0 215 142;" xml:space="preserve">
<style type="text/css">
	.st0{fill:#FFFFFF;}
	.st1{fill:#FFE9B3;}
	.st2{fill:#77838D;}
	.st3{fill:#FFDC6E;}
	.st4{fill:#8BD7F8;}
</style>
<g>
	<path class="st0" d="M140.31,7.04v56.69c0,2.72-2.2,4.92-4.92,4.92H6.76c-2.72,0-4.92,2.2-4.92,4.92v61.48
		c0,2.72,2.2,4.92,4.92,4.92h201.47c2.72,0,4.92-2.2,4.92-4.92v-16.48V68.65V7.04c0-2.72-2.2-4.92-4.92-4.92h-63.01
		C142.51,2.12,140.31,4.32,140.31,7.04z"/>
	<g>
		<path class="st1" d="M205.92,133.55H9.28c-3.83,0-6.93,0.17-6.93,0.37v4.65c0,0.21,3.1,0.37,6.93,0.37h202.85v-5.6
			C211,133.46,208.65,133.55,205.92,133.55z"/>
	</g>
	<g>
		<path class="st1" d="M206.66,4.85v128.7c0,2,0.23,3.61,0.52,3.61h6.52c0.29,0,0.52-1.62,0.52-3.61V6.87c0-2.9-3.52-5.26-7.85-5.26
			l0,0C206.54,2.2,206.66,3.43,206.66,4.85z"/>
	</g>
	<path class="st2" d="M208.23,141.66H6.76c-3.65,0-6.61-2.97-6.61-6.61V73.57c0-3.65,2.96-6.61,6.61-6.61h128.63
		c1.78,0,3.22-1.45,3.22-3.23V7.04c0-3.65,2.97-6.61,6.61-6.61h63.01c3.65,0,6.61,2.97,6.61,6.61v128.01
		C214.84,138.69,211.88,141.66,208.23,141.66z M6.76,70.34c-1.78,0-3.22,1.45-3.22,3.22v61.48c0,1.78,1.45,3.23,3.22,3.23h201.47
		c1.78,0,3.22-1.45,3.22-3.23V7.04c0-1.78-1.45-3.23-3.22-3.23h-63.01c-1.78,0-3.23,1.45-3.23,3.23v56.69
		c0,3.65-2.96,6.61-6.61,6.61H6.76z"/>
	<path class="st2" d="M63.4,128.55H18.54c-4.59,0-8.33-3.74-8.33-8.33V81.53c0-4.59,3.73-8.33,8.33-8.33H63.4
		c4.59,0,8.33,3.73,8.33,8.33v38.69C71.73,124.82,67.99,128.55,63.4,128.55z M18.54,76.59c-2.72,0-4.94,2.22-4.94,4.94v38.69
		c0,2.72,2.22,4.94,4.94,4.94H63.4c2.72,0,4.94-2.22,4.94-4.94V81.53c0-2.72-2.22-4.94-4.94-4.94H18.54z"/>
	<g>
		<path class="st3" d="M202.83,17.25V59.7c0,4.33-3.51,7.84-7.84,7.84h-36.29c-4.33,0-7.84-3.51-7.84-7.84V17.25
			c0-4.33,3.51-7.84,7.84-7.84h36.29C199.32,9.41,202.83,12.92,202.83,17.25z"/>
		<path class="st2" d="M196.2,68.81H157.5c-4.36,0-7.9-3.55-7.9-7.9V16.05c0-4.36,3.55-7.9,7.9-7.9h38.69c4.36,0,7.9,3.55,7.9,7.9
			V60.9C204.1,65.26,200.55,68.81,196.2,68.81z M157.5,10.68c-2.96,0-5.36,2.41-5.36,5.36V60.9c0,2.96,2.41,5.36,5.36,5.36h38.69
			c2.96,0,5.36-2.41,5.36-5.36V16.05c0-2.96-2.41-5.36-5.36-5.36H157.5z"/>
	</g>
	<path class="st0" d="M197.07,23.57v29.56c0,4.33-3.51,7.84-7.84,7.84h-24.76c-4.33,0-7.84-3.51-7.84-7.84V23.57
		c0-4.33,3.51-7.84,7.84-7.84h24.76C193.56,15.73,197.07,19.24,197.07,23.57z"/>
	<g>
		<path class="st2" d="M28.27,97.79c-4.22,0-7.65-3.43-7.65-7.65c0-4.22,3.43-7.65,7.65-7.65s7.65,3.43,7.65,7.65
			C35.92,94.35,32.49,97.79,28.27,97.79z M28.27,85.03c-2.82,0-5.11,2.29-5.11,5.11c0,2.82,2.29,5.11,5.11,5.11s5.11-2.29,5.11-5.11
			C33.38,87.32,31.09,85.03,28.27,85.03z"/>
		<circle class="st4" cx="28.27" cy="90.14" r="2.74"/>
	</g>
	<g>
		<path class="st2" d="M55.72,97.8c-4.6,0-8.34-3.74-8.34-8.34c0-4.6,3.74-8.34,8.34-8.34s8.34,3.74,8.34,8.34
			C64.07,94.06,60.32,97.8,55.72,97.8z M55.72,83.65c-3.2,0-5.8,2.6-5.8,5.8c0,3.2,2.6,5.8,5.8,5.8c3.2,0,5.8-2.6,5.8-5.8
			C61.53,86.26,58.92,83.65,55.72,83.65z"/>
		<circle class="st4" cx="55.72" cy="89.46" r="2.99"/>
	</g>
	<g>
		<path class="st2" d="M55.72,120.47c-4.6,0-8.34-3.74-8.34-8.34c0-4.6,3.74-8.34,8.34-8.34s8.34,3.74,8.34,8.34
			C64.07,116.72,60.32,120.47,55.72,120.47z M55.72,106.32c-3.2,0-5.8,2.6-5.8,5.8c0,3.2,2.6,5.8,5.8,5.8c3.2,0,5.8-2.6,5.8-5.8
			C61.53,108.93,58.92,106.32,55.72,106.32z"/>
		<circle class="st4" cx="55.72" cy="112.13" r="2.99"/>
	</g>
	<g>
		<path class="st2" d="M28.27,121.77c-5.32,0-9.64-4.33-9.64-9.64s4.33-9.64,9.64-9.64s9.64,4.33,9.64,9.64
			S33.59,121.77,28.27,121.77z M28.27,105.02c-3.92,0-7.1,3.19-7.1,7.1c0,3.92,3.19,7.1,7.1,7.1s7.1-3.19,7.1-7.1
			C35.38,108.21,32.19,105.02,28.27,105.02z"/>
		<circle class="st4" cx="28.27" cy="112.13" r="4.23"/>
	</g>
	<circle class="st2" cx="186.53" cy="24.33" r="4.64"/>
	<g>
		<g>
			<circle class="st3" cx="123.41" cy="111.77" r="14.52"/>
			<path class="st2" d="M123.41,127.99c-8.94,0-16.21-7.27-16.21-16.21c0-8.94,7.27-16.21,16.21-16.21s16.21,7.27,16.21,16.21
				C139.62,120.71,132.35,127.99,123.41,127.99z M123.41,98.95c-7.07,0-12.82,5.75-12.82,12.83s5.75,12.82,12.82,12.82
				c7.07,0,12.82-5.75,12.82-12.82S130.48,98.95,123.41,98.95z"/>
		</g>
		<circle class="st0" cx="123.49" cy="111.52" r="10.19"/>
		<g>
			<path class="st0" d="M125.01,95.73l0.95-18.72v-0.4c0-1.54-1.14-2.79-2.55-2.79h0c-1.41,0-2.55,1.25-2.55,2.79v0.4l1.31,18.72
				H125.01z"/>
			<path class="st2" d="M125.01,97.42h-2.84c-0.89,0-1.63-0.69-1.69-1.57l-1.31-18.72c0-0.04,0-0.08,0-0.12v-0.4
				c0-2.47,1.9-4.48,4.24-4.48c2.34,0,4.24,2.01,4.24,4.48v0.4c0,0.03,0,0.06,0,0.09l-0.95,18.72
				C126.65,96.71,125.91,97.42,125.01,97.42z M122.56,76.95l0.99,14.18l0.72-14.52c0-0.59-0.39-1.1-0.85-1.1
				c-0.46,0-0.85,0.5-0.85,1.1V76.95z"/>
		</g>
		<g>
			<path class="st0" d="M120.35,95.67l0.28-1.42c0.12-0.62,0.67-1.07,1.31-1.07h2.8h0.12c0.63,0,1.17,0.44,1.31,1.06l0.35,1.64
				c0.18,0.83-0.46,1.61-1.31,1.61h-3.6c-0.89,0-1.53-0.85-1.28-1.71l0,0C120.34,95.75,120.35,95.71,120.35,95.67z"/>
			<path class="st2" d="M125.21,99.18h-3.6c-0.96,0-1.84-0.44-2.42-1.21c-0.57-0.76-0.75-1.73-0.49-2.64l0.28-1.41
				c0.28-1.41,1.53-2.43,2.97-2.43h2.92c1.42,0,2.67,1.01,2.96,2.4l0.35,1.64c0.19,0.9-0.03,1.82-0.61,2.53
				C126.99,98.77,126.13,99.18,125.21,99.18z M122.05,95.79h2.71l-0.2-0.92h-2.33L122.05,95.79z"/>
		</g>
		<g>
			<g>
				<path class="st0" d="M150.97,91.18h-3.77c-0.14,0-0.26-0.11-0.26-0.26v-14.9c0-1.18,0.96-2.14,2.14-2.14l0,0
					c1.18,0,2.14,0.96,2.14,2.14v14.9C151.23,91.06,151.12,91.18,150.97,91.18z"/>
				<path class="st2" d="M150.97,92.87h-3.77c-1.07,0-1.95-0.87-1.95-1.95v-14.9c0-2.11,1.72-3.83,3.83-3.83s3.83,1.72,3.83,3.83
					v14.9C152.92,91.99,152.05,92.87,150.97,92.87z M148.64,89.48h0.89V76.02c0-0.25-0.2-0.45-0.45-0.45c-0.25,0-0.45,0.2-0.45,0.45
					V89.48z"/>
			</g>
			<g>
				<path class="st0" d="M146.95,91.17v34.8h0c4.48,0,7.49-21.62,7.54-26.1c0.02-2.18,0.2-8.71,0.2-8.71L146.95,91.17z"/>
				<path class="st2" d="M146.95,127.67c-0.93,0-1.69-0.76-1.69-1.69v-34.8c0-0.93,0.76-1.69,1.69-1.69l7.74-0.01c0,0,0,0,0,0
					c0.46,0,0.89,0.18,1.21,0.51c0.32,0.33,0.49,0.77,0.48,1.23c0,0.07-0.17,6.54-0.2,8.68
					C156.18,100.17,154.22,127.67,146.95,127.67z M148.64,92.86v28.57c0.65-1.59,1.43-4.07,2.24-7.9c1.2-5.64,1.89-11.68,1.92-13.69
					c0.02-1.48,0.1-4.9,0.15-7L148.64,92.86z"/>
			</g>
			<path class="st3" d="M148.03,92.38v31.01l0,0c1.99,0,3.33-19.26,3.35-23.26c0.01-1.94,0.09-7.76,0.09-7.76L148.03,92.38z"/>
		</g>
	</g>
	<g>
		<g>
			<path class="st0" d="M198.3,40.81h-11.58c-1.36,0-2.46-1.1-2.46-2.46v0c0-1.36,1.1-2.46,2.46-2.46h11.58
				c1.36,0,2.46,1.1,2.46,2.46v0C200.76,39.71,199.66,40.81,198.3,40.81z"/>
			<path class="st2" d="M198.3,42.51h-11.58c-2.29,0-4.16-1.86-4.16-4.16s1.86-4.16,4.16-4.16h11.58c2.29,0,4.16,1.86,4.16,4.16
				S200.59,42.51,198.3,42.51z M186.72,37.58c-0.42,0-0.77,0.35-0.77,0.77c0,0.42,0.35,0.77,0.77,0.77h11.58
				c0.42,0,0.77-0.35,0.77-0.77c0-0.42-0.35-0.77-0.77-0.77H186.72z"/>
		</g>
		<g>
			<circle class="st0" cx="200.33" cy="38.35" r="4.76"/>
			<path class="st2" d="M200.33,44.8c-3.56,0-6.45-2.89-6.45-6.45s2.89-6.45,6.45-6.45c3.56,0,6.45,2.89,6.45,6.45
				S203.89,44.8,200.33,44.8z M200.33,35.29c-1.69,0-3.06,1.37-3.06,3.06c0,1.69,1.37,3.06,3.06,3.06s3.06-1.37,3.06-3.06
				C203.39,36.66,202.02,35.29,200.33,35.29z"/>
		</g>
	</g>
	<g>
		<g>
			<path class="st0" d="M84.08,87.66l14.13-0.06c1.81-0.01,3.22,1.7,3.01,3.65l-1.17,11.02c-0.17,1.65-1.46,2.89-2.98,2.9
				l-11.89,0.05c-1.55,0.01-2.85-1.26-3.02-2.93L81.1,91.28C80.91,89.35,82.3,87.66,84.08,87.66z"/>
			<path class="st2" d="M85.18,106.73c-2.33,0-4.26-1.84-4.5-4.29L79.6,91.42c-0.14-1.4,0.31-2.78,1.23-3.79
				c0.85-0.95,2.01-1.47,3.25-1.47L98.2,86.1c0.01,0,0.01,0,0.02,0c1.25,0,2.4,0.52,3.26,1.47c0.93,1.03,1.38,2.42,1.23,3.84
				l-1.17,11.03c-0.25,2.41-2.18,4.23-4.47,4.24l-11.89,0.05C85.19,106.73,85.18,106.73,85.18,106.73z M84.09,89.16
				c-0.38,0-0.75,0.17-1.03,0.49c-0.35,0.39-0.52,0.93-0.47,1.49l1.08,11.01c0.09,0.9,0.74,1.58,1.51,1.58c0,0,0,0,0.01,0
				l11.89-0.05c0.76,0,1.4-0.67,1.5-1.56l1.17-11.02c0.06-0.56-0.11-1.11-0.47-1.51c-0.16-0.18-0.52-0.49-1.04-0.49c0,0,0,0-0.01,0
				L84.09,89.16z"/>
		</g>
		<path class="st1" d="M85.74,100.27h10.42l-0.4,2.02c-0.07,0.37-0.43,0.64-0.85,0.64h-8c-0.43,0-0.79-0.28-0.85-0.66L85.74,100.27z
			"/>
		<g>
			<path class="st0" d="M84.1,87.36h14.17c1.81,0,3.22,1.05,3.01,2.24l-1.22,6.74c-0.18,1.01-1.47,1.77-3.01,1.77H85.13
				c-1.55,0-2.86-0.78-3.01-1.8l-1.03-6.74C80.9,88.38,82.3,87.36,84.1,87.36z"/>
			<path class="st2" d="M97.05,99.11H85.13c-2.08,0-3.77-1.12-4-2.65l-1.03-6.74c-0.11-0.7,0.11-1.41,0.61-2
				c0.73-0.85,2-1.36,3.39-1.36h14.17c1.41,0,2.69,0.52,3.42,1.4c0.5,0.59,0.7,1.31,0.57,2.03l-1.22,6.74
				C100.77,98.02,99.09,99.11,97.05,99.11z M84.1,88.36c-0.96,0-1.61,0.36-1.88,0.67c-0.18,0.21-0.16,0.34-0.15,0.39l1.03,6.74
				c0.06,0.39,0.81,0.96,2.02,0.96h11.92c1.19,0,1.95-0.56,2.02-0.94l1.22-6.74c0.01-0.05,0.03-0.18-0.14-0.39
				c-0.26-0.31-0.91-0.68-1.88-0.68H84.1z"/>
		</g>
		<path class="st2" d="M85.69,91.22h10.99c0.46,0,0.83,0.37,0.83,0.83v0.41c0,0.46-0.37,0.83-0.83,0.83H85.69
			c-0.46,0-0.83-0.37-0.83-0.83v-0.41C84.86,91.59,85.23,91.22,85.69,91.22z"/>
		<g>
			
				<rect x="86.54" y="79.45" transform="matrix(-1 -1.224647e-16 1.224647e-16 -1 182.3673 171.2928)" class="st0" width="9.29" height="12.39"/>
			<path class="st2" d="M96.83,92.84H85.54V78.45h11.29V92.84z M87.54,90.84h7.29V80.45h-7.29V90.84z"/>
		</g>
	</g>
</g>
</svg>
