<?xml version="1.0" encoding="utf-8"?>
<!-- Generator: Adobe Illustrator 25.2.3, SVG Export Plug-In . SVG Version: 6.00 Build 0)  -->
<svg version="1.1" id="Layer_1" xmlns="http://www.w3.org/2000/svg" xmlns:xlink="http://www.w3.org/1999/xlink" x="0px" y="0px"
	 viewBox="0 0 256 256" style="enable-background:new 0 0 256 256;" xml:space="preserve">
<style type="text/css">
	.st0{fill:#FFFFFF;}
	.st1{fill:#77838D;}
	.st2{fill:#FFE9B3;}
</style>
<g>
	<g>
		<path class="st0" d="M234.69,213.82H21.31c-4.06,0-7.36-3.3-7.36-7.36V100.72c0-4.06,3.3-7.36,7.36-7.36h213.38
			c4.06,0,7.36,3.3,7.36,7.36v105.74C242.05,210.53,238.76,213.82,234.69,213.82z"/>
		<path class="st1" d="M227.33,217.82H28.68c-10.33,0-18.73-8.4-18.73-18.73v-91.01c0-10.33,8.4-18.73,18.73-18.73h198.65
			c10.33,0,18.73,8.4,18.73,18.73v91.01C246.05,209.42,237.65,217.82,227.33,217.82z M28.68,97.36c-5.91,0-10.73,4.81-10.73,10.73
			v91.01c0,5.91,4.81,10.73,10.73,10.73h198.65c5.91,0,10.72-4.81,10.72-10.73v-91.01c0-5.91-4.81-10.73-10.72-10.73H28.68z"/>
	</g>
	<path class="st2" d="M226.5,199.22H29.5c-2.44,0-4.43-1.98-4.43-4.43v-31.3c0-2.44,1.98-4.43,4.43-4.43H226.5
		c2.44,0,4.43,1.98,4.43,4.43v31.3C230.93,197.24,228.95,199.22,226.5,199.22z"/>
	<path class="st1" d="M89.21,220.39H44.19c-1.1,0-2-0.9-2-2v-4c0-1.1,0.9-2,2-2h45.02c1.1,0,2,0.9,2,2v4
		C91.21,219.5,90.32,220.39,89.21,220.39z"/>
	<g>
		<path class="st0" d="M208.76,145.04H47.24c-1.38,0-2.5-1.12-2.5-2.5v-12.99c0-1.38,1.12-2.5,2.5-2.5h161.53
			c1.38,0,2.5,1.12,2.5,2.5v12.99C211.26,143.92,210.14,145.04,208.76,145.04z"/>
		<path class="st1" d="M206.26,148.04H49.74c-4.41,0-8-3.59-8-8v-7.98c0-4.41,3.59-8,8-8h156.52c4.41,0,8,3.59,8,8v7.98
			C214.27,144.45,210.68,148.04,206.26,148.04z M49.74,130.05c-1.1,0-2,0.9-2,2v7.98c0,1.1,0.9,2,2,2h156.52c1.1,0,2-0.9,2-2v-7.98
			c0-1.1-0.9-2-2-2H49.74z"/>
	</g>
	<g>
		<rect x="48.19" y="214.39" class="st0" width="36.02" height="36.02"/>
		<path class="st1" d="M86.21,252.4H46.19v-40.02h40.02V252.4z M50.19,248.4h32.01v-32.01H50.19V248.4z"/>
	</g>
	<g>
		<path class="st0" d="M69.4,136.42V11.73c0-2.28,1.85-4.13,4.13-4.13l108.94,0c2.28,0,4.13,1.85,4.13,4.13v124.69
			c0,2.28-1.85,4.13-4.13,4.13H73.53C71.25,140.55,69.4,138.7,69.4,136.42z"/>
		<path class="st1" d="M178.33,144.55H77.67c-6.76,0-12.27-5.5-12.27-12.27V15.86C65.4,9.1,70.9,3.6,77.67,3.6h100.67
			c6.76,0,12.27,5.5,12.27,12.27v116.41C190.6,139.04,185.1,144.55,178.33,144.55z M77.67,11.6c-2.35,0-4.27,1.91-4.27,4.27v116.41
			c0,2.35,1.91,4.27,4.27,4.27h100.67c2.35,0,4.27-1.91,4.27-4.27V15.86c0-2.35-1.91-4.27-4.27-4.27H77.67z"/>
	</g>
	<path class="st1" d="M168.74,133.43H87.27c-5.6,0-10.15-4.55-10.15-10.15V35.05c0-5.6,4.55-10.15,10.15-10.15h81.47
		c5.6,0,10.15,4.55,10.15,10.15v88.23C178.88,128.88,174.33,133.43,168.74,133.43z M87.27,30.91c-2.29,0-4.15,1.86-4.15,4.15v88.23
		c0,2.29,1.86,4.14,4.15,4.14h81.47c2.29,0,4.15-1.86,4.15-4.14V35.05c0-2.29-1.86-4.15-4.15-4.15H87.27z"/>
	<path class="st2" d="M166.98,123.58H88.95c-1.24,0-2.25-1.01-2.25-2.25V91.86c0-1.24,1.01-2.25,2.25-2.25h78.02
		c1.24,0,2.25,1.01,2.25,2.25v29.47C169.23,122.57,168.22,123.58,166.98,123.58z"/>
</g>
</svg>
