<?xml version="1.0" encoding="utf-8"?>
<!-- Generator: Adobe Illustrator 25.2.3, SVG Export Plug-In . SVG Version: 6.00 Build 0)  -->
<svg version="1.1" id="Layer_1" xmlns="http://www.w3.org/2000/svg" xmlns:xlink="http://www.w3.org/1999/xlink" x="0px" y="0px"
	 viewBox="0 0 256 256" style="enable-background:new 0 0 256 256;" xml:space="preserve">
<style type="text/css">
	.st0{fill:#FFFFFF;}
	.st1{fill:#77838D;}
</style>
<g>
	<g>
		<path class="st0" d="M236.24,194.67H19.43c-6.49,0-11.75-5.26-11.75-11.75V73.15c0-6.49,5.26-11.75,11.75-11.75h216.81
			c6.49,0,11.75,5.26,11.75,11.75v109.77C247.99,189.41,242.73,194.67,236.24,194.67z"/>
		<path class="st1" d="M226.53,198.32H29.14c-13.85,0-25.11-11.26-25.11-25.11V82.86c0-13.85,11.26-25.11,25.11-25.11h197.4
			c13.85,0,25.11,11.27,25.11,25.11v90.36C251.65,187.06,240.38,198.32,226.53,198.32z M29.14,65.05c-9.82,0-17.81,7.99-17.81,17.81
			v90.36c0,9.82,7.99,17.81,17.81,17.81h197.4c9.82,0,17.81-7.99,17.81-17.81V82.86c0-9.82-7.99-17.81-17.81-17.81H29.14z"/>
	</g>
	<g>
		<g>
			<g>
				<g>
					<path class="st0" d="M95.4,21.23v26.18c0,2.18-1.76,3.94-3.94,3.94H61.31c-2.18,0-3.94-1.76-3.94-3.94l0-26.18
						c0-2.18,1.76-3.94,3.94-3.94h30.15C93.64,17.29,95.4,19.06,95.4,21.23z"/>
					<path class="st1" d="M88.21,54.09H64.57c-5.48,0-9.93-4.45-9.93-9.93V24.49c0-5.48,4.45-9.93,9.93-9.93h23.64
						c5.48,0,9.93,4.45,9.93,9.93v19.68C98.14,49.64,93.68,54.09,88.21,54.09z M64.57,20.03c-2.46,0-4.45,2-4.45,4.45v19.68
						c0,2.46,2,4.45,4.45,4.45h23.64c2.46,0,4.45-2,4.45-4.45V24.49c0-2.46-2-4.45-4.45-4.45H64.57z"/>
				</g>
				<g>
					<path class="st0" d="M95.4,6.99v5.14c0,1.72-1.39,3.11-3.11,3.11h-31.8c-1.72,0-3.11-1.39-3.11-3.11V6.99
						c0-1.72,1.39-3.11,3.11-3.11h31.8C94.01,3.88,95.4,5.28,95.4,6.99z"/>
					<path class="st1" d="M89.72,17.98H63.05c-4.64,0-8.42-3.78-8.42-8.42c0-4.64,3.78-8.42,8.42-8.42h26.67
						c4.64,0,8.42,3.78,8.42,8.42C98.14,14.21,94.36,17.98,89.72,17.98z M63.05,6.62c-1.62,0-2.94,1.32-2.94,2.94
						c0,1.62,1.32,2.94,2.94,2.94h26.67c1.62,0,2.94-1.32,2.94-2.94v0c0-1.62-1.32-2.94-2.94-2.94H63.05z"/>
				</g>
			</g>
			<g>
				<g>
					<path class="st0" d="M57.37,234.83v-26.18c0-2.18,1.76-3.94,3.94-3.94h30.15c2.18,0,3.94,1.76,3.94,3.94l0,26.18
						c0,2.18-1.76,3.94-3.94,3.94H61.31C59.14,238.77,57.37,237.01,57.37,234.83z"/>
					<path class="st1" d="M88.21,241.51H64.57c-5.48,0-9.93-4.45-9.93-9.93V211.9c0-5.48,4.45-9.93,9.93-9.93h23.64
						c5.48,0,9.93,4.45,9.93,9.93v19.68C98.14,237.06,93.68,241.51,88.21,241.51z M64.57,207.45c-2.46,0-4.45,2-4.45,4.45v19.68
						c0,2.46,2,4.45,4.45,4.45h23.64c2.46,0,4.45-2,4.45-4.45V211.9c0-2.46-2-4.45-4.45-4.45H64.57z"/>
				</g>
				<g>
					<path class="st0" d="M57.37,249.07v-5.14c0-1.72,1.39-3.11,3.11-3.11h31.8c1.72,0,3.11,1.39,3.11,3.11l0,5.14
						c0,1.72-1.39,3.11-3.11,3.11h-31.8C58.77,252.18,57.37,250.79,57.37,249.07z"/>
					<path class="st1" d="M89.72,254.92H63.05c-4.64,0-8.42-3.78-8.42-8.42c0-4.64,3.78-8.42,8.42-8.42h26.67
						c4.64,0,8.42,3.78,8.42,8.42C98.14,251.15,94.36,254.92,89.72,254.92z M63.05,243.56c-1.62,0-2.94,1.32-2.94,2.94
						c0,1.62,1.32,2.94,2.94,2.94h26.67c1.62,0,2.94-1.32,2.94-2.94c0-1.62-1.32-2.94-2.94-2.94H63.05z"/>
				</g>
			</g>
		</g>
		<g>
			<g>
				<g>
					<path class="st0" d="M198.3,21.23v26.18c0,2.18-1.76,3.94-3.94,3.94h-30.15c-2.18,0-3.94-1.76-3.94-3.94V21.23
						c0-2.18,1.76-3.94,3.94-3.94h30.15C196.53,17.29,198.3,19.06,198.3,21.23z"/>
					<path class="st1" d="M191.11,54.09h-23.64c-5.48,0-9.93-4.45-9.93-9.93V24.49c0-5.48,4.45-9.93,9.93-9.93h23.64
						c5.48,0,9.93,4.45,9.93,9.93v19.68C201.04,49.64,196.58,54.09,191.11,54.09z M167.46,20.03c-2.46,0-4.45,2-4.45,4.45v19.68
						c0,2.46,2,4.45,4.45,4.45h23.64c2.46,0,4.45-2,4.45-4.45V24.49c0-2.46-2-4.45-4.45-4.45H167.46z"/>
				</g>
				<g>
					<path class="st0" d="M198.3,6.99v5.14c0,1.72-1.39,3.11-3.11,3.11h-31.8c-1.72,0-3.11-1.39-3.11-3.11V6.99
						c0-1.72,1.39-3.11,3.11-3.11h31.8C196.91,3.88,198.3,5.28,198.3,6.99z"/>
					<path class="st1" d="M192.62,17.98h-26.67c-4.64,0-8.42-3.78-8.42-8.42c0-4.64,3.78-8.42,8.42-8.42h26.67
						c4.64,0,8.42,3.78,8.42,8.42C201.04,14.21,197.26,17.98,192.62,17.98z M165.95,6.62c-1.62,0-2.94,1.32-2.94,2.94
						c0,1.62,1.32,2.94,2.94,2.94h26.67c1.62,0,2.94-1.32,2.94-2.94v0c0-1.62-1.32-2.94-2.94-2.94H165.95z"/>
				</g>
			</g>
			<g>
				<g>
					<path class="st0" d="M160.27,234.83v-26.18c0-2.18,1.76-3.94,3.94-3.94h30.15c2.18,0,3.94,1.76,3.94,3.94v26.18
						c0,2.18-1.76,3.94-3.94,3.94h-30.15C162.04,238.77,160.27,237.01,160.27,234.83z"/>
					<path class="st1" d="M191.11,241.51h-23.64c-5.48,0-9.93-4.45-9.93-9.93V211.9c0-5.48,4.45-9.93,9.93-9.93h23.64
						c5.48,0,9.93,4.45,9.93,9.93v19.68C201.04,237.06,196.58,241.51,191.11,241.51z M167.46,207.45c-2.46,0-4.45,2-4.45,4.45v19.68
						c0,2.46,2,4.45,4.45,4.45h23.64c2.46,0,4.45-2,4.45-4.45V211.9c0-2.46-2-4.45-4.45-4.45H167.46z"/>
				</g>
				<g>
					<path class="st0" d="M160.27,249.07v-5.14c0-1.72,1.39-3.11,3.11-3.11h31.8c1.72,0,3.11,1.39,3.11,3.11v5.14
						c0,1.72-1.39,3.11-3.11,3.11h-31.8C161.67,252.18,160.27,250.79,160.27,249.07z"/>
					<path class="st1" d="M192.62,254.92h-26.67c-4.64,0-8.42-3.78-8.42-8.42c0-4.64,3.78-8.42,8.42-8.42h26.67
						c4.64,0,8.42,3.78,8.42,8.42C201.04,251.15,197.26,254.92,192.62,254.92z M165.95,243.56c-1.62,0-2.94,1.32-2.94,2.94
						c0,1.62,1.32,2.94,2.94,2.94h26.67c1.62,0,2.94-1.32,2.94-2.94c0-1.62-1.32-2.94-2.94-2.94H165.95z"/>
				</g>
			</g>
		</g>
	</g>
</g>
</svg>
