<?xml version="1.0" encoding="utf-8"?>
<!-- Generator: Adobe Illustrator 25.2.3, SVG Export Plug-In . SVG Version: 6.00 Build 0)  -->
<svg version="1.1" id="Layer_1" xmlns="http://www.w3.org/2000/svg" xmlns:xlink="http://www.w3.org/1999/xlink" x="0px" y="0px"
	 viewBox="0 0 232 18" style="enable-background:new 0 0 232 18;" xml:space="preserve">
<style type="text/css">
	.st0{fill:#FFFFFF;}
	.st1{fill:#77838D;}
	.st2{fill:#B4E4FA;}
</style>
<g>
	<g>
		<path class="st0" d="M69.29,15.97H3.8c-1.49,0-2.7-1.21-2.7-2.7V4.46c0-1.49,1.21-2.7,2.7-2.7h65.49c1.49,0,2.7,1.21,2.7,2.7v8.82
			C71.98,14.77,70.77,15.97,69.29,15.97z"/>
		<path class="st1" d="M69.29,17.47H3.8c-2.31,0-4.2-1.88-4.2-4.2V4.46c0-2.31,1.88-4.2,4.2-4.2h65.49c2.31,0,4.2,1.88,4.2,4.2v8.82
			C73.48,15.59,71.6,17.47,69.29,17.47z M3.8,3.26c-0.66,0-1.2,0.54-1.2,1.2v8.82c0,0.66,0.54,1.2,1.2,1.2h65.49
			c0.66,0,1.2-0.54,1.2-1.2V4.46c0-0.66-0.54-1.2-1.2-1.2H3.8z"/>
	</g>
	<path class="st2" d="M60.31,12.98H13.25c-0.99,0-1.8-0.8-1.8-1.8V6.67c0-0.99,0.8-1.8,1.8-1.8h47.06c0.99,0,1.8,0.8,1.8,1.8v4.51
		C62.1,12.18,61.3,12.98,60.31,12.98z"/>
	<path class="st1" d="M62.85,17.47H10.24c-2.31,0-4.2-1.88-4.2-4.2V4.46c0-2.31,1.88-4.2,4.2-4.2h52.61c2.31,0,4.2,1.88,4.2,4.2
		v8.82C67.04,15.59,65.16,17.47,62.85,17.47z M10.24,3.26c-0.66,0-1.2,0.54-1.2,1.2v8.82c0,0.66,0.54,1.2,1.2,1.2h52.61
		c0.66,0,1.2-0.54,1.2-1.2V4.46c0-0.66-0.54-1.2-1.2-1.2H10.24z"/>
	<g>
		<path class="st0" d="M227.23,15.97h-95.6c-1.49,0-2.7-1.21-2.7-2.7V4.46c0-1.49,1.21-2.7,2.7-2.7h95.6c1.49,0,2.7,1.21,2.7,2.7
			v8.82C229.93,14.77,228.72,15.97,227.23,15.97z"/>
		<path class="st1" d="M227.23,17.47h-95.6c-2.31,0-4.2-1.88-4.2-4.2V4.46c0-2.31,1.88-4.2,4.2-4.2h95.6c2.31,0,4.2,1.88,4.2,4.2
			v8.82C231.43,15.59,229.55,17.47,227.23,17.47z M131.63,3.26c-0.66,0-1.2,0.54-1.2,1.2v8.82c0,0.66,0.54,1.2,1.2,1.2h95.6
			c0.66,0,1.2-0.54,1.2-1.2V4.46c0-0.66-0.54-1.2-1.2-1.2H131.63z"/>
	</g>
	<path class="st2" d="M217.74,13.35h-73.99c-1.49,0-2.7-1.21-2.7-2.7V7.19c0-1.49,1.21-2.7,2.7-2.7h73.99c1.49,0,2.7,1.21,2.7,2.7
		v3.47C220.44,12.15,219.23,13.35,217.74,13.35z"/>
	<path class="st1" d="M220.25,16.97h-81.56c-2.04,0-3.7-1.66-3.7-3.7V4.46c0-2.04,1.66-3.7,3.7-3.7h81.56c2.04,0,3.7,1.66,3.7,3.7
		v8.82C223.95,15.32,222.29,16.97,220.25,16.97z M138.69,2.76c-0.93,0-1.7,0.76-1.7,1.7v8.82c0,0.93,0.76,1.7,1.7,1.7h81.56
		c0.93,0,1.7-0.76,1.7-1.7V4.46c0-0.93-0.76-1.7-1.7-1.7H138.69z"/>
	<g>
		<path class="st0" d="M171.69,11.87H93.48c-0.24,0-0.44-0.19-0.44-0.44V6.2c0-0.24,0.19-0.44,0.44-0.44h78.21
			c0.24,0,0.44,0.19,0.44,0.44v5.23C172.13,11.67,171.93,11.87,171.69,11.87z"/>
		<path class="st1" d="M171.69,13.37H93.48c-1.07,0-1.93-0.87-1.93-1.94V6.2c0-1.07,0.87-1.94,1.93-1.94h78.21
			c1.07,0,1.93,0.87,1.93,1.94v5.23C173.63,12.5,172.76,13.37,171.69,13.37z M94.54,10.37h76.08v-3.1H94.54V10.37z"/>
	</g>
</g>
</svg>
