<?xml version="1.0" encoding="utf-8"?>
<!-- Generator: Adobe Illustrator 25.2.3, SVG Export Plug-In . SVG Version: 6.00 Build 0)  -->
<svg version="1.1" id="Layer_1" xmlns="http://www.w3.org/2000/svg" xmlns:xlink="http://www.w3.org/1999/xlink" x="0px" y="0px"
	 viewBox="0 0 256 256" style="enable-background:new 0 0 256 256;" xml:space="preserve">
<style type="text/css">
	.st0{fill:#FFFFFF;}
	.st1{fill:#77838D;}
</style>
<g>
	<g>
		<path class="st0" d="M183.87,195.34H72.76c-6.49,0-11.75-5.26-11.75-11.75V72.48c0-6.49,5.26-11.75,11.75-11.75h111.11
			c6.49,0,11.75,5.26,11.75,11.75v111.11C195.62,190.08,190.36,195.34,183.87,195.34z"/>
		<path class="st1" d="M173.95,199.03H82.68c-13.99,0-25.36-11.38-25.36-25.36V82.4c0-13.99,11.38-25.36,25.36-25.36h91.26
			c13.99,0,25.36,11.38,25.36,25.36v91.26C199.31,187.65,187.93,199.03,173.95,199.03z M82.68,64.41c-9.92,0-17.99,8.07-17.99,17.99
			v91.26c0,9.92,8.07,17.99,17.99,17.99h91.26c9.92,0,17.99-8.07,17.99-17.99V82.4c0-9.92-8.07-17.99-17.99-17.99H82.68z"/>
	</g>
	<g>
		<g>
			<g>
				<path class="st0" d="M19.92,108.83h26.52c2.18,0,3.94,1.76,3.94,3.94v30.53c0,2.18-1.76,3.94-3.94,3.94l-26.52,0
					c-2.18,0-3.94-1.76-3.94-3.94v-30.53C15.99,110.59,17.75,108.83,19.92,108.83z"/>
				<path class="st1" d="M43.12,150H23.25c-5.53,0-10.03-4.5-10.03-10.03v-23.88c0-5.53,4.5-10.03,10.03-10.03h19.88
					c5.53,0,10.03,4.5,10.03,10.03v23.88C53.15,145.5,48.65,150,43.12,150z M23.25,111.6c-2.48,0-4.5,2.02-4.5,4.5v23.88
					c0,2.48,2.02,4.5,4.5,4.5h19.88c2.48,0,4.5-2.02,4.5-4.5v-23.88c0-2.48-2.02-4.5-4.5-4.5H23.25z"/>
			</g>
			<g>
				<path class="st0" d="M5.55,108.83h5.25c1.72,0,3.11,1.39,3.11,3.11v32.19c0,1.72-1.39,3.11-3.11,3.11H5.55
					c-1.72,0-3.11-1.39-3.11-3.11v-32.19C2.44,110.22,3.83,108.83,5.55,108.83z"/>
				<path class="st1" d="M8.18,150c-4.69,0-8.5-3.81-8.5-8.5v-26.94c0-4.69,3.81-8.5,8.5-8.5s8.5,3.81,8.5,8.5v26.94
					C16.68,146.19,12.86,150,8.18,150z M8.18,111.6c-1.64,0-2.97,1.33-2.97,2.97v26.94c0,1.64,1.33,2.97,2.97,2.97
					s2.97-1.33,2.97-2.97v-26.94C11.15,112.93,9.81,111.6,8.18,111.6z"/>
			</g>
		</g>
		<g>
			<g>
				<path class="st0" d="M235.75,147.24h-26.52c-2.18,0-3.94-1.76-3.94-3.94v-30.53c0-2.18,1.76-3.94,3.94-3.94h26.52
					c2.18,0,3.94,1.76,3.94,3.94v30.53C239.69,145.47,237.92,147.24,235.75,147.24z"/>
				<path class="st1" d="M232.43,150h-19.88c-5.53,0-10.03-4.5-10.03-10.03v-23.88c0-5.53,4.5-10.03,10.03-10.03h19.88
					c5.53,0,10.03,4.5,10.03,10.03v23.88C242.45,145.5,237.96,150,232.43,150z M212.55,111.6c-2.48,0-4.5,2.02-4.5,4.5v23.88
					c0,2.48,2.02,4.5,4.5,4.5h19.88c2.48,0,4.5-2.02,4.5-4.5v-23.88c0-2.48-2.02-4.5-4.5-4.5H212.55z"/>
			</g>
			<g>
				<path class="st0" d="M250.12,147.24h-5.25c-1.72,0-3.11-1.39-3.11-3.11v-32.19c0-1.72,1.39-3.11,3.11-3.11l5.25,0
					c1.72,0,3.11,1.39,3.11,3.11v32.19C253.23,145.84,251.84,147.24,250.12,147.24z"/>
				<path class="st1" d="M247.5,150c-4.69,0-8.5-3.81-8.5-8.5v-26.94c0-4.69,3.82-8.5,8.5-8.5c4.69,0,8.5,3.81,8.5,8.5v26.94
					C256,146.19,252.19,150,247.5,150z M247.5,111.6c-1.64,0-2.97,1.33-2.97,2.97v26.94c0,1.64,1.33,2.97,2.97,2.97
					c1.64,0,2.97-1.33,2.97-2.97v-26.94C250.47,112.93,249.14,111.6,247.5,111.6z"/>
			</g>
		</g>
	</g>
</g>
</svg>
