<?xml version="1.0" encoding="utf-8"?>
<!-- Generator: Adobe Illustrator 25.2.3, SVG Export Plug-In . SVG Version: 6.00 Build 0)  -->
<svg version="1.1" id="Layer_1" xmlns="http://www.w3.org/2000/svg" xmlns:xlink="http://www.w3.org/1999/xlink" x="0px" y="0px"
	 viewBox="0 0 256 256" style="enable-background:new 0 0 256 256;" xml:space="preserve">
<style type="text/css">
	.st0{fill:#ECBB72;}
	.st1{fill:#74A140;}
	.st2{fill:#A8CC69;}
	.st3{fill:#9BBB61;}
</style>
<g>
	<circle class="st0" cx="128.76" cy="141.84" r="111.15"/>
	<g>
		<path class="st1" d="M135.02,85.86c0,0-12.16-72.19-57.05-58.66c-31.74,9.57,10.87,66.34,31,74.19c0,0-110.81,2.82-78.79,49.19
			c16.19,23.45,83.27-23.18,83.27-23.18s-44.44,88.29,8.22,87.78c52.66-0.51,23.62-82.5,23.62-82.5s51.88,46.29,77.3,22.31
			s-40.8-57.31-61.62-51.52c0,0,69.02-43.37,44.38-66.19S135.74,61.16,135.02,85.86z"/>
		<path class="st1" d="M148.97,87.54c0,0,22.68-75.9-27.37-84.21c-35.39-5.87-21.13,69.6-5.34,86.84c0,0-108.93-50.19-100,10.12
			c4.52,30.5,91.92,17.28,91.92,17.28s-85.33,64.49-33.96,89.15s62.35-68.81,62.35-68.81s28.26,69.73,64.39,58.59
			s-12.23-75.14-35.21-79.46c0,0,87.73-9.13,74.71-43.06C227.44,40.07,161.47,63.9,148.97,87.54z"/>
		<path class="st1" d="M127.17,87.31c0,0-40.68-60.86-76.08-30.12c-25.03,21.74,37.11,56.05,58.69,54.96c0,0-99.91,48-51.7,77.17
			c24.38,14.75,66.45-55.28,66.45-55.28s-4.34,98.75,43.48,76.7s-12.27-84.93-12.27-84.93s66.3,20.96,79.65-11.34
			s-60.71-35.55-77.32-21.73c0,0,45.18-67.85,13.35-78.56S117.7,64.48,127.17,87.31z"/>
		<path class="st2" d="M134.28,152.36c0,0-4.41-10.02-10.42-6.41c-4.25,2.55,4.01,9.22,7.22,9.62c0,0-15.97,4.47-9.62,10.02
			c3.21,2.81,11.23-6.41,11.23-6.41s-3.21,14.43,4.41,12.43s0.4-12.83,0.4-12.83s9.22,4.81,12.03,0.4
			c2.81-4.41-8.02-6.82-10.82-5.21c0,0,8.42-8.82,4.01-11.23C138.29,140.33,133.47,148.75,134.28,152.36z"/>
		<path class="st3" d="M94.13,91.24c0,0-10.87-24.7-25.69-15.81c-10.48,6.29,9.88,22.73,17.79,23.71c0,0-39.35,11.02-23.71,24.7
			c7.9,6.92,27.67-15.81,27.67-15.81s-7.9,35.57,10.87,30.63s0.99-31.62,0.99-31.62s22.73,11.86,29.64,0.99S111.92,91.24,105,95.2
			c0,0,20.75-21.74,9.88-27.67C104.02,61.6,92.16,82.35,94.13,91.24z"/>
		<path class="st2" d="M174.1,82.53c0,0-7.78-17.69-18.4-11.32c-7.51,4.5,7.08,16.28,12.74,16.98c0,0-28.18,7.89-16.98,17.69
			c5.66,4.95,19.81-11.32,19.81-11.32s-5.66,25.47,7.78,21.94s0.71-22.64,0.71-22.64s16.28,8.49,21.23,0.71
			c4.95-7.78-14.15-12.03-19.11-9.2c0,0,14.86-15.57,7.08-19.81C181.18,61.3,172.68,76.16,174.1,82.53z"/>
	</g>
</g>
</svg>
