<?xml version="1.0" encoding="utf-8"?>
<!-- Generator: Adobe Illustrator 25.2.3, SVG Export Plug-In . SVG Version: 6.00 Build 0)  -->
<svg version="1.1" id="Layer_1" xmlns="http://www.w3.org/2000/svg" xmlns:xlink="http://www.w3.org/1999/xlink" x="0px" y="0px"
	 viewBox="0 0 256 256" style="enable-background:new 0 0 256 256;" xml:space="preserve">
<style type="text/css">
	.st0{fill:#D7EFF8;}
	.st1{fill:#FFFFFF;}
	.st2{fill:#FFCE78;}
	.st3{fill:#42ACE1;}
</style>
<g>
	<circle class="st0" cx="127.7" cy="128.5" r="127.5"/>
	<g>
		<path class="st1" d="M67.4,205.1v-32.8c0-22.6,19.4-40.9,43.4-40.9h30.9c24,0,43.4,18.3,43.4,40.9v32.8"/>
		<path class="st2" d="M184.2,205.1H98v-25.3c0,0,44.6-8.8,59.2-45c0,0,29.9,8.3,27.9,39.2L184.2,205.1z"/>
		<g>
			<g>
				<path class="st1" d="M142.7,123.9h-32.7c-10.6,0-19.1-8.6-19.1-19.1V60.7c0-10.6,8.6-19.1,19.1-19.1h32.7
					c10.6,0,19.1,8.6,19.1,19.1v44.1C161.8,115.4,153.2,123.9,142.7,123.9z"/>
				<path class="st3" d="M126.3,127.6c-21.6,0-39.2-17.6-39.2-39.2V77c0-21.6,17.6-39.2,39.2-39.2s39.2,17.6,39.2,39.2v11.4
					C165.5,110.1,147.9,127.6,126.3,127.6z M126.3,45.2c-17.5,0-31.8,14.3-31.8,31.8v11.4c0,17.5,14.3,31.8,31.8,31.8
					s31.8-14.3,31.8-31.8V77C158.1,59.5,143.8,45.2,126.3,45.2z"/>
			</g>
			<g>
				<path class="st3" d="M111,88.4c-2,0-3.7-1.7-3.7-3.7v-5c0-2,1.7-3.7,3.7-3.7s3.7,1.7,3.7,3.7v5C114.7,86.7,113.1,88.4,111,88.4z
					"/>
				<path class="st3" d="M141.6,88.4c-2,0-3.7-1.7-3.7-3.7v-5c0-2,1.7-3.7,3.7-3.7s3.7,1.7,3.7,3.7v5
					C145.3,86.7,143.6,88.4,141.6,88.4z"/>
			</g>
			<path class="st3" d="M126.9,105.8c-6.6,0-11.3-2.5-11.5-2.7c-1.8-1-2.4-3.3-1.4-5c1-1.8,3.2-2.4,5-1.4c0.3,0.2,7.1,3.7,15,0.3
				c1.9-0.8,4.1,0.1,4.9,2c0.8,1.9-0.1,4.1-2,4.9C133.3,105.3,129.9,105.8,126.9,105.8z"/>
			<path class="st3" d="M185.2,205.6c-2,0-3.7-1.7-3.7-3.7v-31.4c0-19.6-17.8-35.5-39.7-35.5h-30.9c-21.9,0-39.7,15.9-39.7,35.5
				v31.4c0,2-1.7,3.7-3.7,3.7c-2,0-3.7-1.7-3.7-3.7v-31.4c0-23.6,21.2-42.9,47.1-42.9h30.9c26,0,47.2,19.2,47.2,42.9v31.4
				C188.9,204,187.2,205.6,185.2,205.6z"/>
			<path class="st3" d="M88.2,205.9c-2,0-3.7-1.7-3.7-3.7V175c0-1.7,1.1-3.2,2.8-3.6c0.2-0.1,20.3-5.4,35.7-15.9
				c21.1-14.3,22.1-23.3,22.1-23.4c-0.1-2,1.5-3.8,3.6-3.9c2.1-0.1,3.8,1.5,3.9,3.6c0.1,1.3-0.2,12.9-25.3,29.8
				c-13.1,8.9-28.9,14.2-35.2,16.1v24.4C92,204.2,90.3,205.9,88.2,205.9z"/>
			<path class="st3" d="M162.8,205.4c-2,0-3.7-1.7-3.7-3.7v-33.9c0-2,1.7-3.7,3.7-3.7c2,0,3.7,1.7,3.7,3.7v33.9
				C166.5,203.8,164.9,205.4,162.8,205.4z"/>
			<path class="st3" d="M88.4,205.4c-2,0-3.7-1.7-3.7-3.7v-33.9c0-2,1.7-3.7,3.7-3.7c2,0,3.7,1.7,3.7,3.7v33.9
				C92.1,203.8,90.5,205.4,88.4,205.4z"/>
			<path class="st3" d="M120.5,181.8c-1.6,0-3.1-1.1-3.6-2.7c-0.6-2,0.6-4,2.5-4.6c15.2-4.3,23.6-15.3,23.7-15.4
				c1.2-1.6,3.6-2,5.2-0.7c1.6,1.2,2,3.5,0.7,5.2c-0.4,0.5-9.9,13-27.6,18C121.1,181.8,120.8,181.8,120.5,181.8z"/>
		</g>
	</g>
</g>
</svg>
