<?xml version="1.0" encoding="utf-8"?>
<!-- Generator: Adobe Illustrator 25.2.3, SVG Export Plug-In . SVG Version: 6.00 Build 0)  -->
<svg version="1.1" id="Layer_1" xmlns="http://www.w3.org/2000/svg" xmlns:xlink="http://www.w3.org/1999/xlink" x="0px" y="0px"
	 viewBox="0 0 256 256" style="enable-background:new 0 0 256 256;" xml:space="preserve">
<style type="text/css">
	.st0{fill:#D7EFF8;}
	.st1{fill:#FFD16A;}
	.st2{fill:#42ACE1;}
	.st3{fill:#B4E4FA;}
	.st4{fill:#FFFFFF;}
</style>
<g>
	<circle class="st0" cx="127.8" cy="128.1" r="127.9"/>
	<g>
		<g>
			<g>
				<path class="st1" d="M75,51.4c0.4-1.2,0.9-2.4,1.5-3.5c-8,0.7-15.1,6-17.8,14.1C55.1,72.9,61,84.7,71.9,88.3
					c8.8,2.9,18.1-0.3,23.3-7.4c-2-0.1-4-0.4-5.9-1.1C77.5,75.9,71.1,63.2,75,51.4z"/>
			</g>
			<g>
				<path class="st2" d="M78.8,92.5c-2.6,0-5.1-0.4-7.7-1.2c-12.6-4.2-19.5-17.9-15.3-30.5c3-9.1,11.1-15.5,20.7-16.4
					c1.3-0.1,2.4,0.5,3.1,1.5c0.7,1,0.7,2.3,0.2,3.4c-0.6,1.1-1,2-1.3,3c0,0,0,0,0,0c-1.6,4.8-1.2,10,1,14.6c2.3,4.6,6.2,8,11.1,9.6
					c1.6,0.5,3.3,0.8,5.1,0.9c1.2,0.1,2.3,0.8,2.9,1.9c0.5,1.1,0.4,2.4-0.3,3.4C93.5,89,86.3,92.5,78.8,92.5z M71.4,52.6
					c-4.3,2-7.7,5.7-9.2,10.3c-1.5,4.4-1.1,9.1,0.9,13.3c2.1,4.2,5.7,7.3,10.1,8.7c5.3,1.8,10.9,0.9,15.3-2.1c0,0,0,0-0.1,0
					c-6.5-2.2-11.8-6.8-14.9-12.9C70.8,64.4,70.1,58.4,71.4,52.6z"/>
			</g>
		</g>
		<path class="st3" d="M201.7,191.3H54.8c-3.3,0-5.1-3.7-3.1-6.3l17.4-21.8c0.7-0.9,1.9-1.5,3.1-1.5h110.2c1.1,0,2.2,0.5,3,1.3
			l19.3,21.8C206.9,187.3,205.1,191.3,201.7,191.3z"/>
		<path class="st2" d="M215.5,194.6H44.6c-3,0-5.7-1.7-7.1-4.4c-1.4-2.8-1.1-6.1,0.8-8.6l20.2-26.4c1.5-2,3.8-3.1,6.2-3.1H193
			c2.3,0,4.5,1,6,2.8l22.5,26.4c2.1,2.4,2.5,5.8,1.2,8.7C221.3,192.9,218.6,194.6,215.5,194.6z M64.8,158.8c-0.4,0-0.7,0.2-0.9,0.5
			l-20.2,26.4c-0.5,0.6-0.3,1.3-0.1,1.5c0.2,0.3,0.5,0.7,1.1,0.7h170.9c0.6,0,0.9-0.4,1.1-0.7c0.1-0.3,0.3-0.9-0.2-1.6l-22.5-26.4
			c-0.2-0.3-0.5-0.4-0.9-0.4H64.8z"/>
		<g>
			<g>
				<path class="st4" d="M111.9,122.1l-11.5-6.6c-1.8-1-2.4-3.3-1.4-5.1l3.2-5.5c1-1.8,3.3-2.4,5.1-1.4l11.5,6.6
					c1.8,1,2.4,3.3,1.4,5.1l-3.2,5.5C115.9,122.5,113.6,123.1,111.9,122.1z"/>
				<path class="st2" d="M112.5,124.8c-1.8,0-3.5-0.5-5.1-1.4l-6-3.4c-2.4-1.4-4.1-3.6-4.8-6.2c-0.7-2.6-0.3-5.4,1-7.8
					c2.8-4.9,9.1-6.6,14-3.7l6,3.4c4.9,2.8,6.6,9.1,3.7,14c-1.4,2.4-3.6,4.1-6.2,4.8C114.3,124.7,113.4,124.8,112.5,124.8z
					 M106.6,107.6c-1.2,0-2.4,0.6-3.1,1.8c-0.5,0.8-0.6,1.8-0.4,2.7c0.2,0.9,0.8,1.7,1.6,2.1l6,3.4c0.8,0.5,1.8,0.6,2.7,0.4
					c0.9-0.2,1.7-0.8,2.1-1.6c1-1.7,0.4-3.9-1.3-4.8l-6-3.4C107.8,107.7,107.2,107.6,106.6,107.6z"/>
			</g>
			<g>
				<g>
					<path class="st4" d="M159.2,67.8c2.3-7.1-0.9-14.6-7-16.7l-13.6-4.8c-6.1-2.1-13,1.9-15.2,9l-0.9,2.8L158.1,71L159.2,67.8z"/>
					<path class="st2" d="M160.2,75.4l-42-15.2l1.9-5.9c1.5-4.6,4.6-8.3,8.6-10.3c3.5-1.7,7.4-2,10.9-0.8l13.6,4.8
						c7.8,2.7,11.9,12.1,9.1,20.9L160.2,75.4z M126.6,56L156,66.7c1.7-5.3-0.5-10.9-4.9-12.4l-13.6-4.8c-2.3-0.8-4.4-0.2-5.7,0.5
						C129.4,51.1,127.5,53.3,126.6,56z"/>
				</g>
				<g>
					<path class="st4" d="M122.4,58.1l-3.3,10.3c-3.7,11.4,1.4,23.5,11.3,27l0,0c9.9,3.5,20.9-3,24.6-14.5l3.2-9.9L122.4,58.1z"/>
					<path class="st2" d="M135.8,99.6c-2.2,0-4.4-0.4-6.6-1.1c-11.6-4-17.6-18-13.4-31.2l4.4-13.6l42,15.2l-4.2,13
						c-2.2,6.8-6.9,12.5-12.8,15.4C142.3,98.9,139,99.6,135.8,99.6z M124.5,62.4l-2.2,7c-3.1,9.7,1,19.9,9.2,22.8
						c3.5,1.2,7.3,0.9,10.8-0.8c4.4-2.2,7.8-6.4,9.5-11.5l2.2-6.8L124.5,62.4z"/>
				</g>
			</g>
			<g>
				<g>
					<path class="st4" d="M167.4,163.5l0-0.2c1.5-0.2,2.9-0.5,4.4-1.1c9.8-3.8,14.7-15.1,11-25.3l-11-30.4
						c-3.7-10.1-14.6-15.3-24.3-11.4c-9.8,3.8-14.7,15.1-11,25.3l8.5,23.4h-4.1c-1.1,0-2.1,0.1-3.2,0.3l12,19.5H167.4z"/>
					<path class="st2" d="M167.4,166.9h-17.7c-1.2,0-2.2-0.6-2.9-1.6l-12-19.5c-0.6-0.9-0.7-2.1-0.2-3.1c0.5-1,1.4-1.7,2.5-1.9
						c1.1-0.2,2.1-0.3,3-0.3l-6.9-18.9c-4.3-11.8,1.5-25.1,13-29.5c5.5-2.1,11.4-2,16.8,0.4c5.5,2.5,9.8,7.1,11.9,13l11,30.4
						c4.3,11.8-1.5,25.1-13,29.5c-1.2,0.5-2.5,0.9-3.9,1.1C168.6,166.7,168,166.9,167.4,166.9z M151.6,160.2h14.6
						c0.2-0.1,0.5-0.2,0.8-0.2c1.3-0.2,2.5-0.5,3.6-0.9c8.1-3.2,12.1-12.6,9.1-21l-11-30.4c-1.5-4.1-4.5-7.4-8.4-9.2
						c-3.7-1.7-7.8-1.8-11.6-0.3c-8.1,3.2-12.1,12.6-9.1,21l8.5,23.4c0.4,1,0.2,2.2-0.4,3.1c-0.6,0.9-1.7,1.4-2.7,1.4h-1.4
						L151.6,160.2z"/>
				</g>
				<g>
					<path class="st4" d="M185.9,163.6h-15.4l0,0h-19.4L137.9,143c-9,1.5-16.2,9-16.7,18.4c-0.5,11.3,8.4,20.6,19.6,20.6h44.7
						c0.4,0,0.9,0,1.3,0C198.4,181.1,197.5,163.6,185.9,163.6z"/>
					<path class="st2" d="M185.5,185.3h-44.7c-6.3,0-12.2-2.5-16.6-7.1c-4.4-4.6-6.6-10.6-6.3-17c0.5-10.6,8.7-19.7,19.5-21.5
						l2.2-0.4l13.4,20.8l33,0c8,0,12.3,6.2,12.5,12.3c0.2,5.9-3.7,12.2-11.4,12.7C186.5,185.3,186,185.3,185.5,185.3z M136.3,146.8
						c-6.6,2-11.5,7.9-11.8,14.7c-0.2,4.5,1.4,8.8,4.5,12c3.1,3.2,7.3,5,11.8,5h44.7c0.4,0,0.7,0,1.1,0c3.9-0.3,5.2-3.3,5.2-5.8
						c-0.1-2.2-1.4-5.8-5.8-5.8l-36.6,0L136.3,146.8z"/>
				</g>
			</g>
			<rect x="176.8" y="163.8" class="st2" width="6.7" height="17.2"/>
			<g>
				<path class="st4" d="M150.6,102.3c-4.5-2-9.7,0.1-11.9,4.5l-5,10.2l-15.9-8c-1.1,1.3-9.4,15.4-9.2,15.8l24.1,11.6
					c1.1,0.5,2.2,0.8,3.3,0.9c3.9,0.8,8-1,9.9-4.8l9-18.2C157.1,109.9,155.2,104.4,150.6,102.3z"/>
				<path class="st2" d="M137.9,140.9c-0.8,0-1.6-0.1-2.3-0.2c-1.5-0.1-3-0.5-4.4-1.2l-25.2-12.1l-0.5-1c-0.9-1.9-0.6-2.6,4.2-10.8
					c0.7-1.2,4.4-7.5,5.4-8.7l1.7-2l15.2,7.6l3.5-7.2c3-6.1,10.3-8.8,16.3-6.1c3.1,1.4,5.4,3.9,6.5,7.1c1.1,3.2,0.9,6.6-0.5,9.6
					l-9,18.2C146.9,138.3,142.6,140.9,137.9,140.9z M113.1,123.3l21.1,10.1c0.7,0.3,1.4,0.5,2.1,0.6l0.5,0.1c2.5,0.5,5-0.7,6.2-3
					l9-18.2c0.7-1.4,0.8-2.9,0.2-4.4c-0.5-1.4-1.6-2.6-3-3.2l0,0c-2.7-1.2-6.1,0.1-7.5,3l-6.5,13.2l-16.2-8.1
					C117.3,116.1,114.7,120.5,113.1,123.3z"/>
			</g>
			<g>
				<line class="st4" x1="142.7" y1="163.5" x2="155.4" y2="163.5"/>
				<path class="st2" d="M155.4,166.9h-12.6c-1.9,0-3.3-1.5-3.3-3.3c0-1.9,1.5-3.3,3.3-3.3h12.6c1.9,0,3.3,1.5,3.3,3.3
					C158.7,165.4,157.2,166.9,155.4,166.9z"/>
			</g>
		</g>
	</g>
</g>
</svg>
