<?xml version="1.0" encoding="utf-8"?>
<!-- Generator: Adobe Illustrator 25.2.3, SVG Export Plug-In . SVG Version: 6.00 Build 0)  -->
<svg version="1.1" id="Layer_1" xmlns="http://www.w3.org/2000/svg" xmlns:xlink="http://www.w3.org/1999/xlink" x="0px" y="0px"
	 viewBox="0 0 256 256" style="enable-background:new 0 0 256 256;" xml:space="preserve">
<style type="text/css">
	.st0{fill:#D7EFF8;}
	.st1{fill:#FFFFFF;}
	.st2{fill:#42ACE1;}
</style>
<g>
	<circle class="st0" cx="128" cy="128" r="128"/>
	<g>
		<g>
			<path class="st1" d="M182.8,203.2H73.6c-4.6,0-8.2-3.7-8.2-8.2V65.1c0-4.6,3.7-8.2,8.2-8.2h109.2c4.6,0,8.2,3.7,8.2,8.2V195
				C191.1,199.5,187.4,203.2,182.8,203.2z"/>
			<path class="st2" d="M175.7,207h-95c-10.5,0-19.1-8.6-19.1-19.1V72.2c0-10.5,8.6-19.1,19.1-19.1h95c10.5,0,19.1,8.6,19.1,19.1
				v115.7C194.8,198.4,186.2,207,175.7,207z M80.7,60.5c-6.4,0-11.6,5.2-11.6,11.6v115.7c0,6.4,5.2,11.6,11.6,11.6h95
				c6.4,0,11.6-5.2,11.6-11.6V72.2c0-6.4-5.2-11.6-11.6-11.6H80.7z"/>
		</g>
		<path class="st2" d="M149.4,163.8h-42.3c-2.1,0-3.7-1.7-3.7-3.7c0-2.1,1.7-3.7,3.7-3.7h42.3c2.1,0,3.7,1.7,3.7,3.7
			C153.1,162.2,151.4,163.8,149.4,163.8z"/>
		<path class="st2" d="M149.4,181.6h-42.3c-2.1,0-3.7-1.7-3.7-3.7c0-2.1,1.7-3.7,3.7-3.7h42.3c2.1,0,3.7,1.7,3.7,3.7
			C153.1,180,151.4,181.6,149.4,181.6z"/>
		<g>
			<g>
				<circle class="st2" cx="128.2" cy="111.6" r="31.2"/>
				<path class="st2" d="M128.2,146.6c-19.3,0-35-15.7-35-35s15.7-35,35-35s35,15.7,35,35S147.5,146.6,128.2,146.6z M128.2,84.1
					c-15.2,0-27.5,12.3-27.5,27.5s12.3,27.5,27.5,27.5s27.5-12.3,27.5-27.5S143.4,84.1,128.2,84.1z"/>
			</g>
			<g>
				<rect x="121.7" y="93.5" class="st1" width="13" height="36.2"/>
				<rect x="110.6" y="105.1" class="st1" width="35.2" height="13"/>
			</g>
		</g>
		<g>
			<rect x="104.1" y="48.2" class="st1" width="47.5" height="20.8"/>
			<path class="st2" d="M151.6,72.7h-47.5c-2.1,0-3.7-1.7-3.7-3.7V48.2c0-2.1,1.7-3.7,3.7-3.7h47.5c2.1,0,3.7,1.7,3.7,3.7V69
				C155.3,71.1,153.6,72.7,151.6,72.7z M107.8,65.3h40V51.9h-40V65.3z"/>
		</g>
	</g>
</g>
</svg>
