<?xml version="1.0" encoding="utf-8"?>
<!-- Generator: Adobe Illustrator 25.2.3, SVG Export Plug-In . SVG Version: 6.00 Build 0)  -->
<svg version="1.1" id="Layer_1" xmlns="http://www.w3.org/2000/svg" xmlns:xlink="http://www.w3.org/1999/xlink" x="0px" y="0px"
	 viewBox="0 0 256 256" style="enable-background:new 0 0 256 256;" xml:space="preserve">
<style type="text/css">
	.st0{fill:#D7EFF8;}
	.st1{fill:#FFFFFF;}
	.st2{fill:#42ACE1;}
	.st3{fill:#81C994;}
</style>
<g>
	<circle class="st0" cx="128" cy="127.7" r="128"/>
	<g>
		<path class="st1" d="M196.5,209.6h-24.6v-74h2c12.5,0,22.6,10.1,22.6,22.6V209.6z"/>
		<g>
			<path class="st1" d="M169,69.9c0,0,20.9-21-2.6-33.9c-19.4-10.7-64.9,9.3-71.1,17.3c-6.2,7.9,0,15.7,7.2,15.9
				C112.4,69.4,169,69.9,169,69.9z"/>
			<path class="st2" d="M170.5,73.6l-1.6,0c-0.6,0-56.7-0.5-66.5-0.7c-5.3-0.1-10.1-3.1-12.2-7.7c-2.1-4.5-1.3-9.7,2.2-14.2
				c6.9-8.9,54.7-29.9,75.9-18.3c7.6,4.2,11.9,9.6,12.9,16.2c1.7,12.1-9,23.1-9.5,23.5L170.5,73.6z M152.1,36.7
				c-20.1,0-49.4,13.1-53.9,18.9c-1.8,2.3-2.2,4.5-1.3,6.4c1,2,3.2,3.4,5.7,3.5c8.8,0.2,55.3,0.6,64.7,0.7c2.2-2.6,7.3-9.5,6.4-16.1
				c-0.6-4.2-3.7-7.8-9.1-10.7C161.3,37.4,157,36.7,152.1,36.7z"/>
		</g>
		<path class="st3" d="M170.3,63.9c0,0,7.8-15-7.2-21s-68.4,10.8-61.8,23.5l13.9-8.1h42.6L170.3,63.9z"/>
		<g>
			<path class="st1" d="M102.8,70v20c0,17.9,14.5,32.5,32.5,32.5h1.2c17.9,0,32.5-14.5,32.5-32.5V70H102.8"/>
			<path class="st2" d="M136.5,125.4h-1.2c-19.6,0-35.5-15.9-35.5-35.5V67H172V90C172,109.5,156.1,125.4,136.5,125.4z M105.8,73v17
				c0,16.3,13.2,29.5,29.5,29.5h1.2c16.3,0,29.5-13.2,29.5-29.5V73H105.8z"/>
		</g>
		<g>
			<path class="st2" d="M121.7,88.8c-1.6,0-3-1.3-3-3v-4.7c0-1.6,1.3-3,3-3s3,1.3,3,3v4.7C124.6,87.5,123.3,88.8,121.7,88.8z"/>
			<path class="st2" d="M150.2,88.8c-1.6,0-3-1.3-3-3v-4.7c0-1.6,1.3-3,3-3c1.6,0,3,1.3,3,3v4.7C153.2,87.5,151.8,88.8,150.2,88.8z"
				/>
		</g>
		<g>
			<path class="st1" d="M168.7,70.5h-64.8v-0.9c0-6.2,5-11.2,11.2-11.2h42.6c6.3,0,11.5,5.2,11.2,11.5
				C169,70.4,168.9,70.7,168.7,70.5z"/>
			<path class="st2" d="M167.6,74l-0.4-0.5h-66.3v-3.9c0-7.8,6.4-14.2,14.2-14.2h42.6c3.9,0,7.7,1.6,10.3,4.4
				c2.7,2.8,4,6.4,3.9,10.2c-0.1,2.3-1.3,3.1-2.3,3.4L167.6,74z M107.1,67.5h58.6c-0.3-1.4-1-2.6-2-3.6c-1.6-1.6-3.8-2.6-6-2.6
				h-42.6C111.3,61.3,108.1,64,107.1,67.5z"/>
		</g>
		<g>
			<path class="st1" d="M97.3,82.5L85.2,95.4l-10.5-7.8l5.5-10.9l21.1-10.2c1.8-0.9,4-0.4,5.2,1.2v0c1.3,1.6,1.2,3.9-0.1,5.4
				L97.3,82.5z"/>
			<path class="st2" d="M85.2,98.4c-0.6,0-1.2-0.2-1.8-0.6L72.9,90c-1.2-0.9-1.5-2.4-0.9-3.7l5.5-10.9c0.3-0.6,0.8-1.1,1.4-1.3
				l21.1-10.2c3.1-1.5,6.8-0.6,8.9,2.1c2.1,2.7,2.1,6.5-0.2,9.2c0,0.1-0.1,0.1-0.1,0.1l-9.1,9.4L87.4,97.5
				C86.8,98.1,86,98.4,85.2,98.4z M78.5,86.7l6.4,4.7l10.3-10.9c0,0,0,0,0,0l9-9.3c0.4-0.5,0.4-1.1,0-1.6c-0.4-0.5-1.1-0.6-1.6-0.4
				l-20.2,9.8L78.5,86.7z"/>
		</g>
		<g>
			<path class="st1" d="M97.2,133.3H70.5c-1.1,0-2.1-0.6-2.7-1.6c-0.5-1-0.4-2.2,0.3-3.1l15.4-20.9c1.7-2.3,2.4-5.2,2-8
				c-0.4-2.9-1.9-5.4-4.3-7.1c-1.9-1.4-4.1-2.1-6.4-2.1c-0.5,0-1.1,0-1.6,0.1c-2.9,0.4-5.4,1.9-7.1,4.3l-31.2,42.3
				c-2.5,3.4-3.6,6.7-3.1,9.9c0.5,3.1,2.4,6.1,5.3,8.3c0.6,0.4,1.2,0.8,1.9,1.1c0.1,0,0.2,0.1,0.2,0.1c1.6,1,3.5,1.5,5.4,1.5h52.6
				c5.7,0,10.8-7.8,10.8-13.9C108.1,138.2,103.2,133.3,97.2,133.3z"/>
			<path class="st3" d="M94,139.6H64.5c-0.8,0-1.6-0.5-2-1.2c-0.4-0.7-0.3-1.6,0.2-2.3l19.2-26.6c1.3-1.7,1.8-3.8,1.5-6
				c-0.3-2.1-1.4-4-3.2-5.3c-1.4-1-3.1-1.6-4.8-1.6c-0.4,0-0.8,0-1.2,0.1c-2.1,0.3-4,1.4-5.3,3.2l-30.9,42.4c-1.9,2.5-2.6,5-2.3,7.4
				c0.3,2.3,1.8,4.5,4,6.2c0.4,0.3,0.9,0.6,1.4,0.8c0.1,0,0.1,0.1,0.2,0.1c1.2,0.7,2.6,1.1,4,1.1l48.6,0.2
				C94.2,158.4,94,139.5,94,139.6z"/>
			<path class="st2" d="M97.2,127.4H76.4l11.9-16.1c2.7-3.6,3.8-8,3.1-12.5c-0.7-4.4-3-8.3-6.6-11c-3.6-2.7-8-3.8-12.5-3.1
				c-4.4,0.7-8.3,3-11,6.6l-31.2,42.3c-3.4,4.6-4.9,9.6-4.2,14.4c0.7,4.7,3.4,9,7.7,12.2c0.9,0.6,1.8,1.2,2.8,1.7
				c2.5,1.4,5.4,2.2,8.3,2.2h52.6c9.4,0,16.8-10.7,16.8-19.9C114,134.9,106.5,127.4,97.2,127.4z M97.2,161H44.7
				c-2.5,0-4.9-0.7-6.9-1.9c-0.8-0.4-1.6-0.9-2.4-1.4c-6.1-4.5-9.9-13-2.9-22.4l31.2-42.3c4.5-6.1,13.2-7.4,19.3-2.9
				c6.1,4.5,7.4,13.2,2.9,19.3l-15.4,20.9h26.7c7.6,0,13.8,6.2,13.8,13.8C111,151.8,104.9,161,97.2,161z"/>
			<path class="st2" d="M97.2,130.4H70.5l15.4-20.9c4.5-6.1,3.2-14.8-2.9-19.3c-6.1-4.5-14.8-3.2-19.3,2.9l-31.2,42.3
				c-7,9.4-3.2,17.9,2.9,22.4c0.8,0.6,1.6,1,2.4,1.4c2,1.2,4.4,1.9,6.9,1.9h52.6c7.6,0,13.8-9.3,13.8-16.9
				C111,136.5,104.9,130.4,97.2,130.4z M97.2,158.1H44.7c-1.9,0-3.8-0.5-5.4-1.5c-0.1,0-0.2-0.1-0.2-0.1c-0.7-0.3-1.3-0.7-1.9-1.1
				c-3-2.2-4.9-5.1-5.3-8.3c-0.5-3.2,0.6-6.6,3.1-9.9l31.2-42.3c1.7-2.3,4.2-3.8,7.1-4.3c0.5-0.1,1.1-0.1,1.6-0.1
				c2.3,0,4.5,0.7,6.4,2.1c2.3,1.7,3.8,4.2,4.3,7.1c0.4,2.9-0.3,5.7-2,8l-15.4,20.9c-0.7,0.9-0.8,2.1-0.3,3.1c0.5,1,1.5,1.6,2.7,1.6
				h26.7c6,0,10.8,4.9,10.8,10.8C108.1,150.3,103,158.1,97.2,158.1z"/>
		</g>
		<g>
			<g>
				<g>
					<path class="st1" d="M96.8,140.9V199c0,5.8,4.7,10.4,10.4,10.4h54.9c5.8,0,10.4-4.7,10.4-10.4v-58.1c0-5.8-4.7-10.4-10.4-10.4
						H134h-26.7C101.5,130.5,96.8,135.1,96.8,140.9z"/>
					<path class="st2" d="M175.6,212.4H93.9v-71.5c0-7.4,6-13.4,13.4-13.4h54.9c7.4,0,13.4,6,13.4,13.4V212.4z M99.8,206.5h69.8
						v-64.2c0-4.9-4-8.8-8.8-8.8h-50.5c-5.8,0-10.4,4.7-10.4,10.4V206.5z"/>
				</g>
				<path class="st2" d="M196.3,212.4h-23.1c-1.4,0-2.6-1.3-2.6-2.8v-74.3c0-1.5,1.2-2.8,2.6-2.8c14.2,0,25.7,12.1,25.7,27v50.1
					C198.9,211.2,197.8,212.4,196.3,212.4z M175.8,206.8h17.9v-47.3c0-10.9-7.8-19.9-17.9-21.3V206.8z"/>
				<path class="st3" d="M104.4,145.5v61.1H165v-61.1c0-2.8-2.3-5.2-5.2-5.2h-25.7h-24.5C106.8,140.3,104.4,142.6,104.4,145.5z"/>
			</g>
			<path class="st2" d="M135.6,148.3c-0.7,0-1.4-0.2-1.9-0.7l-17.3-14.6c-1.3-1.1-1.4-2.9-0.4-4.2s2.9-1.4,4.2-0.4l15.4,13l15-12.8
				c1.2-1.1,3.1-0.9,4.2,0.3c1.1,1.2,0.9,3.1-0.3,4.2l-16.9,14.5C137,148.1,136.4,148.3,135.6,148.3z"/>
			<path class="st2" d="M150.3,155.2h-29.6c-5.9,0-10.8-4.8-10.8-10.8v-12.6c0-1.6,1.3-3,3-3c1.6,0,3,1.3,3,3v12.6
				c0,2.7,2.2,4.8,4.8,4.8h29.6c2.7,0,4.8-2.2,4.8-4.8v-12.6c0-1.6,1.3-3,3-3c1.6,0,3,1.3,3,3v12.6
				C161.1,150.3,156.3,155.2,150.3,155.2z"/>
			<path class="st2" d="M134.8,212.6c-2.1,0-3.7-1.7-3.7-3.7v-62c0-2.1,1.7-3.7,3.7-3.7s3.7,1.7,3.7,3.7v62
				C138.6,210.9,136.9,212.6,134.8,212.6z"/>
		</g>
		<path class="st3" d="M175.8,206.8h13.5v-44.1c0-10.2-5.9-18.6-13.5-19.9V206.8z"/>
	</g>
</g>
</svg>
