<?xml version="1.0" encoding="utf-8"?>
<!-- Generator: Adobe Illustrator 25.2.3, SVG Export Plug-In . SVG Version: 6.00 Build 0)  -->
<svg version="1.1" id="Layer_1" xmlns="http://www.w3.org/2000/svg" xmlns:xlink="http://www.w3.org/1999/xlink" x="0px" y="0px"
	 viewBox="0 0 256 256" style="enable-background:new 0 0 256 256;" xml:space="preserve">
<style type="text/css">
	.st0{fill:#D7EFF8;}
	.st1{fill:#FFFFFF;}
	.st2{fill:#42ACE1;}
</style>
<g>
	<circle class="st0" cx="127.9" cy="128.1" r="128.1"/>
	<g>
		<path class="st1" d="M187.1,83.9H171h-3.5v-1.6c0-6.9-5.6-12.6-12.6-12.6h-51.3c-6.9,0-12.6,5.6-12.6,12.6v1.6h-3.5H71.5
			c-9.6,0-17.4,7.8-17.4,17.4v69.4c0,9.6,7.8,17.4,17.4,17.4h16.2H171h16.2c9.6,0,17.4-7.8,17.4-17.4v-69.4
			C204.6,91.7,196.7,83.9,187.1,83.9z"/>
		<g>
			<path class="st2" d="M163.8,92.1H94.9c-2.1,0-3.7-1.7-3.7-3.7v-5c0-8.4,6.8-15.2,15.2-15.2h46c8.4,0,15.2,6.8,15.2,15.2v5
				C167.5,90.4,165.8,92.1,163.8,92.1z M98.6,84.6h61.5v-1.3c0-4.3-3.5-7.7-7.7-7.7h-46c-4.3,0-7.7,3.5-7.7,7.7V84.6z"/>
			<g>
				<path class="st2" d="M87.7,188.2H71.5c-9.6,0-17.4-7.8-17.4-17.4v-69.4c0-9.6,7.8-17.4,17.4-17.4h16.2c2.1,0,3.7,1.7,3.7,3.7
					v96.9C91.4,186.6,89.7,188.2,87.7,188.2z M71.5,91.4c-5.5,0-10,4.5-10,10v69.4c0,5.5,4.5,10,10,10h12.4V91.4H71.5z"/>
				<path class="st2" d="M187.1,188.2H171c-2.1,0-3.7-1.7-3.7-3.7V87.6c0-2.1,1.7-3.7,3.7-3.7h16.2c9.6,0,17.4,7.8,17.4,17.4v69.4
					C204.6,180.4,196.7,188.2,187.1,188.2z M174.7,180.8h12.4c5.5,0,10-4.5,10-10v-69.4c0-5.5-4.5-10-10-10h-12.4V180.8z"/>
				<path class="st2" d="M171,188.2H87.7c-2.1,0-3.7-1.7-3.7-3.7V87.6c0-2.1,1.7-3.7,3.7-3.7H171c2.1,0,3.7,1.7,3.7,3.7v96.9
					C174.7,186.6,173,188.2,171,188.2z M91.4,180.8h75.9V91.4H91.4V180.8z"/>
			</g>
		</g>
	</g>
</g>
</svg>
