<?xml version="1.0" encoding="utf-8"?>
<!-- Generator: Adobe Illustrator 25.2.3, SVG Export Plug-In . SVG Version: 6.00 Build 0)  -->
<svg version="1.1" id="Layer_1" xmlns="http://www.w3.org/2000/svg" xmlns:xlink="http://www.w3.org/1999/xlink" x="0px" y="0px"
	 viewBox="0 0 256 256" style="enable-background:new 0 0 256 256;" xml:space="preserve">
<style type="text/css">
	.st0{fill:#D7EFF8;}
	.st1{fill:#FFFFFF;}
	.st2{fill:#42ACE1;}
	.st3{fill:#B4E4FA;}
</style>
<g>
	<circle class="st0" cx="127.5" cy="128" r="128"/>
	<g>
		<g>
			<rect x="144.2" y="156.3" class="st1" width="11.6" height="26.6"/>
			<path class="st2" d="M155.8,186.6h-11.6c-2.1,0-3.7-1.7-3.7-3.7v-26.6c0-2.1,1.7-3.7,3.7-3.7h11.6c2.1,0,3.7,1.7,3.7,3.7v26.6
				C159.5,185,157.8,186.6,155.8,186.6z M147.9,179.2h4.2V160h-4.2V179.2z"/>
		</g>
		<g>
			
				<rect x="139.2" y="154.8" transform="matrix(-1.836970e-16 1 -1 -1.836970e-16 331.9556 42.8139)" class="st1" width="10.7" height="65.3"/>
			<path class="st2" d="M177.2,195.5h-65.3c-1.5,0-2.8-1.3-2.8-2.8V182c0-1.5,1.3-2.8,2.8-2.8h65.3c1.5,0,2.8,1.3,2.8,2.8v10.7
				C180,194.3,178.7,195.5,177.2,195.5z M114.7,190h59.7v-5.2h-59.7V190z"/>
		</g>
		<g>
			<path class="st1" d="M91,106.1l-8.1-31.3c-0.1-0.5-0.4-1-0.7-1.5c-0.8-2.2-2.9-3.8-5.3-3.8H51.6c-3.1,0-5.7,2.5-5.7,5.7
				c0,3.1,2.5,5.7,5.7,5.7h21.2L80,109c0.8,3,3.9,4.9,6.9,4.1l0,0C90,112.2,91.8,109.1,91,106.1z"/>
			<path class="st2" d="M85.5,116.9c-1.7,0-3.3-0.4-4.8-1.3c-2.2-1.3-3.7-3.3-4.3-5.7l-6.5-25.4H51.6c-5.2,0-9.4-4.2-9.4-9.4
				c0-5.2,4.2-9.4,9.4-9.4h25.4c3.9,0,7.3,2.4,8.7,6c0.4,0.7,0.7,1.4,0.9,2.2l8.1,31.3c0.6,2.4,0.3,5-1,7.1
				c-1.3,2.2-3.3,3.7-5.7,4.3C87.1,116.8,86.3,116.9,85.5,116.9z M51.6,73.2c-1.1,0-1.9,0.9-1.9,1.9c0,1.1,0.9,1.9,1.9,1.9h21.2
				c1.7,0,3.2,1.1,3.6,2.8l7.3,28.2c0.1,0.5,0.4,0.9,0.9,1.2c0.4,0.3,1,0.3,1.5,0.2c0.5-0.1,0.9-0.4,1.2-0.9c0.3-0.4,0.3-1,0.2-1.5
				l0,0l-8.1-31.3c0-0.1-0.1-0.3-0.2-0.5c-0.1-0.2-0.2-0.5-0.3-0.7c-0.2-0.7-0.9-1.3-1.8-1.3H51.6z"/>
		</g>
		<g>
			<g>
				<circle class="st1" cx="110.7" cy="188.7" r="16.5"/>
				<path class="st2" d="M110.7,208.9c-11.1,0-20.2-9.1-20.2-20.2s9.1-20.2,20.2-20.2s20.2,9.1,20.2,20.2S121.8,208.9,110.7,208.9z
					 M110.7,175.9c-7,0-12.7,5.7-12.7,12.7c0,7,5.7,12.7,12.7,12.7c7,0,12.7-5.7,12.7-12.7C123.5,181.6,117.7,175.9,110.7,175.9z"/>
			</g>
			<circle class="st2" cx="110.7" cy="188.7" r="4.8"/>
		</g>
		<g>
			<g>
				<circle class="st1" cx="187.8" cy="188.7" r="16.5"/>
				<path class="st2" d="M187.8,208.9c-11.1,0-20.2-9.1-20.2-20.2s9.1-20.2,20.2-20.2s20.2,9.1,20.2,20.2S198.9,208.9,187.8,208.9z
					 M187.8,175.9c-7,0-12.7,5.7-12.7,12.7c0,7,5.7,12.7,12.7,12.7c7,0,12.7-5.7,12.7-12.7C200.5,181.6,194.8,175.9,187.8,175.9z"/>
			</g>
			<circle class="st2" cx="187.8" cy="188.7" r="4.8"/>
		</g>
		<g>
			<g>
				<path class="st1" d="M215,101.6v-2.7c0-28.3-22.9-51.2-51.2-51.2h0l-14.6,53.9H215z"/>
				<path class="st2" d="M215,105.3h-65.8c-1.2,0-2.3-0.5-3-1.5c-0.7-0.9-0.9-2.1-0.6-3.2l14.6-53.9c0.4-1.6,1.9-2.7,3.6-2.7
					c30.3,0,54.9,24.6,54.9,54.9v2.7C218.8,103.6,217.1,105.3,215,105.3z M154.1,97.8h57.2c-0.5-24.7-20.1-44.9-44.6-46.3
					L154.1,97.8z"/>
			</g>
			<g>
				<path class="st1" d="M149.2,101.6c0,0-63.3,0.2-65.9,0.3l-0.2,0h-3.4c0,30,24.1,54.4,54.1,54.4h29.9c28.3,0,51.3-23,51.3-51.3
					v-3.4H149.2z"/>
				<path class="st2" d="M163.7,160h-29.9c-31.9,0-57.8-26.1-57.8-58.1c0-2.1,1.7-3.7,3.7-3.7l3.4,0c2.6-0.1,59.6-0.3,66.1-0.3
					c0,0,0,0,0,0H215c2.1,0,3.7,1.7,3.7,3.7v3.4C218.8,135.3,194.1,160,163.7,160z M83.6,105.6c1.9,26.2,23.7,46.9,50.2,46.9h29.9
					c26.1,0,47.4-21.2,47.6-47.3h-62.1C124.2,105.4,86.3,105.5,83.6,105.6z"/>
			</g>
		</g>
		<path class="st3" d="M148,111.6c0,0-50.2,0.1-52.3,0.2l-0.2,0h-2.7c0,18.8,19.1,34.1,42.9,34.1h23.7c27,0,42.4-18.8,42.4-32.2
			l0.1-2.1H148z"/>
	</g>
</g>
</svg>
