<?xml version="1.0" encoding="utf-8"?>
<!-- Generator: Adobe Illustrator 25.2.3, SVG Export Plug-In . SVG Version: 6.00 Build 0)  -->
<svg version="1.1" id="Layer_1" xmlns="http://www.w3.org/2000/svg" xmlns:xlink="http://www.w3.org/1999/xlink" x="0px" y="0px"
	 viewBox="0 0 256 256" style="enable-background:new 0 0 256 256;" xml:space="preserve">
<style type="text/css">
	.st0{fill:#D4F6FF;}
	.st1{fill:#25AFF4;}
	.st2{fill:#FFFFFF;}
</style>
<g>
	<circle class="st0" cx="127.5" cy="127" r="128.5"/>
	<g>
		<path class="st1" d="M123.1,163.9c-33.7,0-61-27.4-61-61V56.6c0-11.2,9.1-20.2,20.2-20.2h9.8c2.6,0,4.7,2.1,4.7,4.7
			c0,2.6-2.1,4.7-4.7,4.7h-9.8c-6,0-10.9,4.9-10.9,10.9v46.3c0,28.5,23.2,51.7,51.7,51.7s51.7-23.2,51.7-51.7V58
			c0-6.8-5.5-12.3-12.3-12.3H151c-2.6,0-4.7-2.1-4.7-4.7c0-2.6,2.1-4.7,4.7-4.7h11.5c11.9,0,21.6,9.7,21.6,21.6v44.9
			C184.2,136.6,156.8,163.9,123.1,163.9z"/>
		<path class="st1" d="M177,196.2c-11.3,0-20.5-9.2-20.5-20.5s9.2-20.5,20.5-20.5c11.3,0,20.5,9.2,20.5,20.5S188.3,196.2,177,196.2z
			 M177,164.5c-6.2,0-11.2,5-11.2,11.2s5,11.2,11.2,11.2c6.2,0,11.2-5,11.2-11.2S183.2,164.5,177,164.5z"/>
		<path class="st1" d="M150.2,233.5c-17.5,0-31.7-14.2-31.7-31.7v-42.5h9.3v42.5c0,12.3,10,22.4,22.4,22.4s22.4-10,22.4-22.4v-12.1
			h9.3v12.1C181.9,219.3,167.7,233.5,150.2,233.5z"/>
	</g>
	<g>
		<g>
			<path class="st2" d="M155.8,121.8H88.4c-4.6,0-8.2-3.7-8.2-8.2V32.2c0-4.6,3.7-8.2,8.2-8.2h67.5c4.6,0,8.2,3.7,8.2,8.2v81.3
				C164.1,118.1,160.4,121.8,155.8,121.8z"/>
			<path class="st1" d="M148.7,124.6H95.5c-10,0-18.2-8.2-18.2-18.2v-67c0-10,8.2-18.2,18.2-18.2h53.1c10,0,18.2,8.2,18.2,18.2v67
				C166.9,116.4,158.7,124.6,148.7,124.6z M95.5,26.8c-7,0-12.6,5.7-12.6,12.6v67c0,7,5.7,12.6,12.6,12.6h53.1
				c7,0,12.6-5.7,12.6-12.6v-67c0-7-5.7-12.6-12.6-12.6H95.5z"/>
		</g>
		<path class="st1" d="M136.2,94.8H108c-1,0-1.9-0.8-1.9-1.9s0.8-1.9,1.9-1.9h28.2c1,0,1.9,0.8,1.9,1.9S137.2,94.8,136.2,94.8z"/>
		<path class="st1" d="M136.2,106.7H108c-1,0-1.9-0.8-1.9-1.9s0.8-1.9,1.9-1.9h28.2c1,0,1.9,0.8,1.9,1.9S137.2,106.7,136.2,106.7z"
			/>
		<g>
			<g>
				<circle class="st1" cx="122.1" cy="60.6" r="20.9"/>
				<path class="st1" d="M122.1,85.2c-13.6,0-24.6-11-24.6-24.6c0-13.6,11-24.6,24.6-24.6c13.6,0,24.6,11,24.6,24.6
					C146.7,74.1,135.7,85.2,122.1,85.2z M122.1,43.4c-9.4,0-17.1,7.7-17.1,17.1c0,9.4,7.7,17.1,17.1,17.1c9.4,0,17.1-7.7,17.1-17.1
					C139.2,51.1,131.5,43.4,122.1,43.4z"/>
			</g>
			<g>
				<rect x="118.4" y="48.5" class="st2" width="7.5" height="24.2"/>
				<rect x="110.3" y="56.8" class="st2" width="23.5" height="7.5"/>
			</g>
		</g>
		<g>
			<rect x="106" y="18.2" class="st2" width="31.7" height="13.9"/>
			<path class="st1" d="M137.7,34.9H106c-1.5,0-2.8-1.3-2.8-2.8V18.2c0-1.5,1.3-2.8,2.8-2.8h31.7c1.5,0,2.8,1.3,2.8,2.8v13.9
				C140.5,33.6,139.2,34.9,137.7,34.9z M108.8,29.3h26.1V21h-26.1V29.3z"/>
		</g>
	</g>
</g>
</svg>
