<?xml version="1.0" encoding="utf-8"?>
<!-- Generator: Adobe Illustrator 25.2.3, SVG Export Plug-In . SVG Version: 6.00 Build 0)  -->
<svg version="1.1" id="Layer_1" xmlns="http://www.w3.org/2000/svg" xmlns:xlink="http://www.w3.org/1999/xlink" x="0px" y="0px"
	 viewBox="0 0 256 256" style="enable-background:new 0 0 256 256;" xml:space="preserve">
<style type="text/css">
	.st0{fill:#D7EFF8;}
	.st1{fill:#FFFFFF;}
	.st2{fill:#FFD16A;}
	.st3{fill:#42ACE1;}
</style>
<g>
	<circle class="st0" cx="128.1" cy="127.9" r="127.9"/>
	<g>
		<g>
			<path class="st1" d="M81.5,63.5c-6.3,7.6-10.8,19.9-12.1,34.7H48.7C52,81.1,65,67.8,81.5,63.5z"/>
			<path class="st1" d="M132.6,98.3c-1.3-14.8-5.8-27.1-12.1-34.7c16.5,4.2,29.5,17.6,32.8,34.7H132.6z"/>
			<path class="st2" d="M75.9,98c1.8-18.8,9.4-33.5,18.3-35.9h13.6c8.9,2.4,16.5,17.1,18.3,35.9H75.9z"/>
			<path class="st3" d="M160.3,101.1c-3-25.9-24.9-45.4-51-45.4h-0.8c-1.1-0.2-13.9-0.2-15,0h-0.8c-26.1,0-48,19.5-51,45.4
				c-0.1,0.9,0.2,1.8,0.8,2.5c0.6,0.7,1.5,1.1,2.4,1.1h52.4v96.1c0,1.8,1.4,3.2,3.2,3.2c1.8,0,3.2-1.4,3.2-3.2v-96.1h53.3
				c0.9,0,1.8-0.4,2.4-1.1C160.1,102.9,160.4,102,160.3,101.1z M75.9,98c1.8-18.8,9.4-33.5,18.3-35.9h13.6
				c8.9,2.4,16.5,17.1,18.3,35.9H75.9z M81.5,63.5c-6.3,7.6-10.8,19.9-12.1,34.7H48.7C52,81.1,65,67.8,81.5,63.5z M132.6,98.3
				c-1.3-14.8-5.8-27.1-12.1-34.7c16.5,4.2,29.5,17.6,32.8,34.7H132.6z"/>
		</g>
		<g>
			<g>
				<path class="st1" d="M71.6,202.4l-6.6-2.5c-2.1-0.8-3.2-3.2-2.4-5.3l11.1-29.4c0.8-2.1,3.2-3.2,5.3-2.4l6.6,2.5
					c2.1,0.8,3.2,3.2,2.4,5.3L76.9,200C76.1,202.1,73.7,203.2,71.6,202.4z"/>
				<path class="st3" d="M71,205.4c-1.3,0-2.7-0.2-4-0.7c-2.8-1.1-5.1-3.2-6.4-6c-1.3-2.8-1.3-5.9-0.3-8.7l8.6-22.8
					c1.1-2.8,3.2-5.1,6-6.4c2.8-1.3,5.9-1.3,8.7-0.3c2.8,1.1,5.1,3.2,6.4,6c1.3,2.8,1.3,5.9,0.3,8.7L81.7,198
					C79.9,202.5,75.6,205.4,71,205.4z M79.6,167.2c-0.6,0-1.1,0.1-1.6,0.4c-1,0.4-1.7,1.2-2.1,2.2l-8.6,22.8c-0.4,1-0.3,2.1,0.1,3
					c0.4,1,1.2,1.7,2.2,2.1c2,0.8,4.3-0.3,5.1-2.3l8.6-22.8c0.8-2-0.3-4.3-2.3-5.1C80.6,167.3,80.1,167.2,79.6,167.2z"/>
			</g>
			<g>
				<path class="st1" d="M199.7,202.4l6.5-3c2.1-1,3-3.4,2-5.5l-13.3-28.4c-1-2.1-3.4-3-5.5-2l-6.5,3c-2.1,1-3,3.4-2,5.5l13.3,28.4
					C195.1,202.5,197.6,203.4,199.7,202.4z"/>
				<path class="st3" d="M199.6,205.4c-1.3,0-2.6-0.2-3.9-0.7c-2.9-1-5.2-3.1-6.5-5.9L179,176.8c-2.7-5.7-0.2-12.5,5.5-15.2
					c2.8-1.3,5.9-1.4,8.7-0.4c2.9,1,5.2,3.1,6.5,5.9l10.2,21.9c1.3,2.8,1.4,5.9,0.4,8.7c-1,2.9-3.1,5.2-5.9,6.5
					C202.9,205,201.3,205.4,199.6,205.4z M189.4,168c-0.6,0-1.1,0.1-1.7,0.4c-2,0.9-2.9,3.3-1.9,5.3l10.2,21.9
					c0.5,1,1.3,1.7,2.3,2.1c1,0.4,2.1,0.3,3.1-0.1c0,0,0,0,0,0c1-0.5,1.7-1.3,2.1-2.3c0.4-1,0.3-2.1-0.1-3.1L193,170.3
					C192.3,168.8,190.9,168,189.4,168z"/>
			</g>
			<g>
				<path class="st1" d="M188.9,154.6H84.3l-30-30c-4.1-4.1-10.6-4.1-14.7,0s-4.1,10.6,0,14.7l33.2,33.2c2.1,2.1,4.9,3.1,7.7,3
					c0.2,0,0.5,0,0.7,0h107.7c5.8,0,10.5-4.7,10.5-10.5v0C199.4,159.3,194.7,154.6,188.9,154.6z"/>
				<path class="st3" d="M188.9,179.2H81.2c-0.3,0-0.5,0-0.8,0c-3.9,0.1-7.5-1.4-10.3-4.1L37,141.9c-5.5-5.5-5.5-14.5,0-20
					c2.7-2.7,6.2-4.1,10-4.1s7.3,1.5,10,4.1l28.9,28.9h103.1c7.8,0,14.2,6.4,14.2,14.2C203.1,172.9,196.7,179.2,188.9,179.2z
					 M80.5,171.8c0.1,0,0.2,0,0.2,0c0.3,0,0.4,0,0.4,0h107.7c3.7,0,6.8-3,6.8-6.8c0-3.7-3-6.8-6.8-6.8H84.3c-1,0-1.9-0.4-2.6-1.1
					l-30-30c-2.5-2.5-6.9-2.5-9.4,0c-2.6,2.6-2.6,6.8,0,9.4l33.2,33.2c1.3,1.3,3.1,2,4.9,1.9C80.4,171.8,80.5,171.8,80.5,171.8z"/>
			</g>
		</g>
		<g>
			<circle class="st2" cx="198.1" cy="76.1" r="16.3"/>
			<g>
				<g>
					<line class="st1" x1="175.7" y1="76.1" x2="170.7" y2="76.1"/>
					<path class="st3" d="M175.7,78h-5c-1,0-1.9-0.8-1.9-1.9s0.8-1.9,1.9-1.9h5c1,0,1.9,0.8,1.9,1.9S176.7,78,175.7,78z"/>
				</g>
				<g>
					<line class="st1" x1="178.7" y1="87.3" x2="174.4" y2="89.8"/>
					<path class="st3" d="M174.4,91.7c-0.6,0-1.3-0.3-1.6-0.9c-0.5-0.9-0.2-2,0.7-2.5l4.3-2.5c0.9-0.5,2-0.2,2.5,0.7
						c0.5,0.9,0.2,2-0.7,2.5l-4.3,2.5C175,91.6,174.7,91.7,174.4,91.7z"/>
				</g>
				<g>
					<line class="st1" x1="186.9" y1="95.5" x2="184.4" y2="99.8"/>
					<path class="st3" d="M184.4,101.7c-0.3,0-0.6-0.1-0.9-0.2c-0.9-0.5-1.2-1.7-0.7-2.5l2.5-4.3c0.5-0.9,1.7-1.2,2.5-0.7
						c0.9,0.5,1.2,1.7,0.7,2.5l-2.5,4.3C185.7,101.4,185.1,101.7,184.4,101.7z"/>
				</g>
				<g>
					<line class="st1" x1="198.2" y1="98.5" x2="198.2" y2="103.5"/>
					<path class="st3" d="M198.2,105.3c-1,0-1.9-0.8-1.9-1.9v-5c0-1,0.8-1.9,1.9-1.9c1,0,1.9,0.8,1.9,1.9v5
						C200,104.5,199.2,105.3,198.2,105.3z"/>
				</g>
				<g>
					<line class="st1" x1="209.4" y1="95.4" x2="211.9" y2="99.8"/>
					<path class="st3" d="M211.9,101.6c-0.6,0-1.3-0.3-1.6-0.9l-2.5-4.3c-0.5-0.9-0.2-2,0.7-2.5c0.9-0.5,2-0.2,2.5,0.7l2.5,4.3
						c0.5,0.9,0.2,2-0.7,2.5C212.5,101.5,212.2,101.6,211.9,101.6z"/>
				</g>
				<g>
					<line class="st1" x1="217.6" y1="87.2" x2="221.9" y2="89.7"/>
					<path class="st3" d="M221.9,91.6c-0.3,0-0.6-0.1-0.9-0.2l-4.3-2.5c-0.9-0.5-1.2-1.7-0.7-2.5c0.5-0.9,1.7-1.2,2.5-0.7l4.3,2.5
						c0.9,0.5,1.2,1.7,0.7,2.5C223.2,91.2,222.5,91.6,221.9,91.6z"/>
				</g>
				<g>
					<line class="st1" x1="220.5" y1="76" x2="225.5" y2="76"/>
					<path class="st3" d="M225.5,77.8h-5c-1,0-1.9-0.8-1.9-1.9s0.8-1.9,1.9-1.9h5c1,0,1.9,0.8,1.9,1.9S226.6,77.8,225.5,77.8z"/>
				</g>
				<g>
					<line class="st1" x1="217.5" y1="64.8" x2="221.8" y2="62.3"/>
					<path class="st3" d="M217.5,66.6c-0.6,0-1.3-0.3-1.6-0.9c-0.5-0.9-0.2-2,0.7-2.5l4.3-2.5c0.9-0.5,2-0.2,2.5,0.7
						c0.5,0.9,0.2,2-0.7,2.5l-4.3,2.5C218.1,66.5,217.8,66.6,217.5,66.6z"/>
				</g>
				<g>
					<line class="st1" x1="209.3" y1="56.6" x2="211.8" y2="52.2"/>
					<path class="st3" d="M209.3,58.4c-0.3,0-0.6-0.1-0.9-0.2c-0.9-0.5-1.2-1.7-0.7-2.5l2.5-4.3c0.5-0.9,1.7-1.2,2.5-0.7
						s1.2,1.7,0.7,2.5l-2.5,4.3C210.5,58.1,209.9,58.4,209.3,58.4z"/>
				</g>
				<g>
					<line class="st1" x1="198" y1="53.6" x2="198" y2="48.6"/>
					<path class="st3" d="M198,55.5c-1,0-1.9-0.8-1.9-1.9v-5c0-1,0.8-1.9,1.9-1.9c1,0,1.9,0.8,1.9,1.9v5
						C199.9,54.6,199.1,55.5,198,55.5z"/>
				</g>
				<g>
					<line class="st1" x1="186.8" y1="56.6" x2="184.3" y2="52.3"/>
					<path class="st3" d="M186.8,58.5c-0.6,0-1.3-0.3-1.6-0.9l-2.5-4.3c-0.5-0.9-0.2-2,0.7-2.5c0.9-0.5,2-0.2,2.5,0.7l2.5,4.3
						c0.5,0.9,0.2,2-0.7,2.5C187.5,58.4,187.1,58.5,186.8,58.5z"/>
				</g>
				<g>
					<line class="st1" x1="178.6" y1="64.9" x2="174.3" y2="62.4"/>
					<path class="st3" d="M178.6,66.7c-0.3,0-0.6-0.1-0.9-0.2l-4.3-2.5c-0.9-0.5-1.2-1.7-0.7-2.5c0.5-0.9,1.7-1.2,2.5-0.7l4.3,2.5
						c0.9,0.5,1.2,1.7,0.7,2.5C179.9,66.4,179.3,66.7,178.6,66.7z"/>
				</g>
			</g>
		</g>
	</g>
</g>
</svg>
